
<!-- Generator: visioncortex VTracer 0.6.4 -->
<svg version="1.1" xmlns="http://www.w3.org/2000/svg" viewBox="0 0 724 345" preserveAspectRatio="xMidYMid meet">
<path d="M0 0 C2.289 1.739 4.387 3.521 6.449 5.52 C8.137 7.217 8.137 7.217 11 9 C11 9.66 11 10.32 11 11 C11.66 11 12.32 11 13 11 C26.738 26.269 27.875 47.732 27.191 67.039 C26.818 72.829 25.452 77.719 23 83 C22.727 83.598 22.453 84.195 22.172 84.811 C16.548 96.98 16.548 96.98 13 101 C12.34 101 11.68 101 11 101 C11 101.66 11 102.32 11 103 C10.34 103 9.68 103 9 103 C8.505 104.485 8.505 104.485 8 106 C2.84 110.633 -3.34 113.853 -9.562 116.812 C-10.463 117.247 -10.463 117.247 -11.381 117.69 C-20.638 121.93 -29.661 122.364 -39.75 122.375 C-40.936 122.399 -42.122 122.424 -43.344 122.449 C-61.948 122.51 -75.584 115.082 -88.676 102.41 C-98.684 92.032 -105.09 76.333 -106 62 C-106.077 60.826 -106.077 60.826 -106.156 59.629 C-106.576 47.857 -104.166 35.593 -99 25 C-98.642 24.245 -98.283 23.489 -97.914 22.711 C-94.123 15.306 -89.16 7.706 -81 5 C-81 4.34 -81 3.68 -81 3 C-61.248 -17.349 -21.933 -13.176 0 0 Z M-63 32 C-69.748 42.544 -72.451 53.655 -70 66 C-67.387 75.124 -62.702 83.279 -54.258 88.031 C-45.232 91.904 -35.026 91.815 -25.75 88.812 C-16.532 84.824 -12.824 78.004 -9 69 C-4.811 58.336 -6.722 47.325 -11 37 C-14.517 30.223 -18.292 25.529 -25.766 23.102 C-39.295 19.396 -53.504 20.214 -63 32 Z " fill="#FDCE60" transform="translate(573,190)"/>
<path d="M0 0 C1.51 0.549 1.51 0.549 3.051 1.109 C14.581 6.057 25.271 15.841 31 27 C31.455 27.82 31.91 28.64 32.379 29.484 C40.356 44.754 42.855 63.502 37.977 80.168 C30.79 101.01 20.999 113.575 1.348 123.641 C-8.223 127.527 -16.894 128.45 -27.188 128.312 C-28.406 128.316 -29.625 128.319 -30.881 128.322 C-44.937 128.238 -57.472 124.203 -69 116 C-69 115.34 -69 114.68 -69 114 C-69.746 113.746 -70.493 113.492 -71.262 113.23 C-81.697 108.541 -87.156 94.687 -91.391 84.73 C-97.425 67.159 -95.235 47.249 -87.25 30.812 C-82.894 22.277 -78.409 15.01 -70 10 C-68.577 8.762 -68.577 8.762 -67.125 7.5 C-49.813 -7.09 -20.28 -7.656 0 0 Z M-51 37 C-57.915 45.863 -61.295 56.789 -60 68 C-58.093 77.58 -54.348 86.179 -46.117 91.785 C-36.514 97.295 -26.62 98.136 -15.938 95.938 C-8.563 93.895 -4.179 90.6 -0.215 84.051 C5.314 73.425 6.886 61.785 4.352 49.98 C1.537 42.342 -3.968 34.252 -11 30 C-25.028 24.123 -40.174 25.988 -51 37 Z " fill="#F482AD" transform="translate(266,184)"/>
<path d="M0 0 C0.775 0.303 1.549 0.606 2.348 0.918 C12.771 5.494 21.982 14.386 28 24 C28.655 25.024 29.31 26.047 29.984 27.102 C32.487 31.537 33.619 36.189 34.75 41.125 C34.965 42.056 35.181 42.986 35.403 43.945 C39.207 61.29 37.162 81.299 27.812 96.688 C17.581 111.569 3.694 122.158 -14.264 125.585 C-32.194 128.302 -50.702 126.071 -66 116 C-67.009 115.352 -68.019 114.703 -69.059 114.035 C-76.686 108.769 -81.444 103.028 -86 95 C-86.407 94.312 -86.815 93.623 -87.234 92.914 C-95.598 77.666 -97.532 58.21 -93.562 41.375 C-89.495 28.189 -83.425 16.161 -72 8 C-71.112 7.357 -70.224 6.714 -69.309 6.051 C-49.847 -7.154 -21.696 -9.037 0 0 Z M-53.125 36.125 C-59.442 43.951 -61.292 53.091 -61 63 C-59.954 70.621 -57.64 76.88 -53 83 C-52.558 83.628 -52.116 84.256 -51.66 84.902 C-47.352 90.547 -42.176 92.747 -35.5 94.75 C-24.202 95.88 -15.983 94.187 -7 87 C-0.764 81.577 1.494 75.157 2.164 67.002 C2.842 54.629 1.834 44.303 -6.309 34.41 C-10.013 30.304 -13.719 28.484 -19 27 C-19.784 26.773 -20.567 26.546 -21.375 26.312 C-33.532 24.865 -44.451 26.934 -53.125 36.125 Z " fill="#B0DAD8" transform="translate(264,35)"/>
<path d="M0 0 C1.059 -0 2.117 -0 3.208 -0.001 C4.41 -0.01 5.612 -0.019 6.851 -0.029 C8.806 -0.012 8.806 -0.012 10.8 0.005 C12.157 0.005 13.514 0.003 14.871 0.001 C17.722 -0.001 20.572 0.012 23.423 0.035 C27.044 0.063 30.664 0.06 34.285 0.048 C37.093 0.041 39.901 0.048 42.709 0.061 C44.683 0.067 46.657 0.063 48.631 0.059 C58.345 0.159 68.81 0.753 76.804 6.876 C77.612 7.494 78.42 8.111 79.253 8.747 C87.76 15.807 93.298 22.843 94.851 33.974 C95.669 45.037 96.353 58.134 89.366 67.501 C85.143 72.31 80.976 76.365 75.366 79.501 C75.914 84.413 77.521 88.249 79.804 92.564 C80.521 93.968 81.237 95.373 81.952 96.779 C82.337 97.531 82.722 98.284 83.119 99.059 C85.421 103.566 87.693 108.086 89.929 112.626 C90.382 113.514 90.836 114.403 91.303 115.318 C93.193 119.184 94.388 121.697 94.269 126.056 C93.366 128.501 93.366 128.501 91.366 129.501 C89.369 129.598 87.369 129.632 85.37 129.634 C84.172 129.635 82.974 129.637 81.739 129.638 C80.482 129.634 79.224 129.63 77.929 129.626 C76.675 129.63 75.421 129.634 74.13 129.638 C72.331 129.636 72.331 129.636 70.495 129.634 C69.392 129.633 68.29 129.632 67.154 129.631 C64.366 129.501 64.366 129.501 61.366 128.501 C59.988 125.853 59.988 125.853 58.589 122.341 C58.336 121.718 58.084 121.094 57.823 120.452 C57.015 118.452 56.221 116.446 55.429 114.439 C50.993 99.858 50.993 99.858 41.679 89.564 C40.586 89.213 39.492 88.862 38.366 88.501 C38.036 88.171 37.706 87.841 37.366 87.501 C36.019 87.27 34.662 87.09 33.304 86.939 C32.004 86.794 30.705 86.65 29.366 86.501 C29.392 87.626 29.419 88.751 29.446 89.91 C29.536 94.094 29.594 98.277 29.641 102.462 C29.666 104.271 29.7 106.08 29.743 107.889 C29.804 110.493 29.832 113.096 29.855 115.7 C29.88 116.506 29.906 117.311 29.933 118.141 C29.935 122.297 29.7 124.039 27.197 127.51 C24 129.759 22.451 130.143 18.585 130.165 C17.496 130.172 16.406 130.178 15.284 130.185 C14.156 130.165 13.028 130.146 11.866 130.126 C10.738 130.146 9.61 130.165 8.448 130.185 C7.359 130.178 6.27 130.172 5.147 130.165 C4.158 130.16 3.169 130.154 2.149 130.148 C-1.901 129.207 -3.142 127.851 -5.634 124.501 C-6.378 120.666 -6.296 116.878 -6.249 112.981 C-6.255 111.817 -6.26 110.652 -6.266 109.452 C-6.278 105.602 -6.253 101.753 -6.228 97.904 C-6.226 95.23 -6.226 92.556 -6.228 89.882 C-6.228 84.28 -6.208 78.677 -6.176 73.074 C-6.139 66.599 -6.13 60.124 -6.137 53.649 C-6.143 47.415 -6.133 41.182 -6.113 34.948 C-6.106 32.297 -6.103 29.646 -6.104 26.995 C-6.102 23.293 -6.081 19.593 -6.054 15.892 C-6.057 14.792 -6.06 13.692 -6.063 12.559 C-6.051 11.551 -6.04 10.543 -6.028 9.504 C-6.024 8.63 -6.021 7.755 -6.017 6.854 C-5.379 2.936 -3.946 0.751 0 0 Z M30.366 29.501 C30.366 38.411 30.366 47.321 30.366 56.501 C43.031 58.316 43.031 58.316 55.054 54.751 C59.095 50.819 60.544 48.145 60.804 42.501 C60.68 39.184 60.403 37.573 58.866 34.564 C52.8 29.559 46.394 29.077 38.866 29.314 C36.061 29.376 33.256 29.437 30.366 29.501 Z " fill="#FDCE60" transform="translate(317.63377380371094,30.498794555664063)"/>
<path d="M0 0 C1.306 -0.016 2.612 -0.032 3.957 -0.049 C5.219 -0.049 6.481 -0.05 7.781 -0.051 C8.927 -0.054 10.072 -0.057 11.252 -0.06 C14.924 0.361 17.343 1.421 20.5 3.312 C21.566 5.047 21.566 5.047 22.062 7.062 C22.282 7.853 22.501 8.643 22.727 9.457 C22.982 10.399 23.237 11.342 23.5 12.312 C24.298 14.797 25.11 17.275 25.938 19.75 C26.328 20.945 26.719 22.14 27.121 23.371 C28.117 26.319 29.253 29.186 30.438 32.062 C32.666 37.568 34.384 43.182 36.062 48.875 C39.731 61.197 43.873 73.313 48.096 85.455 C50.618 92.723 53.082 100.009 55.5 107.312 C55.918 108.556 56.335 109.8 56.766 111.082 C60.317 122.06 60.317 122.06 59.5 127.312 C54.653 130.544 49.322 129.64 43.625 129.625 C42.44 129.641 41.256 129.657 40.035 129.674 C38.892 129.674 37.748 129.675 36.57 129.676 C35.526 129.679 34.482 129.682 33.407 129.685 C30.036 129.253 28.187 128.374 25.5 126.312 C24.345 123.638 23.501 121.28 22.75 118.5 C22.542 117.801 22.335 117.101 22.121 116.381 C20.948 112.334 20.2 108.513 19.5 104.312 C6.3 104.642 -6.9 104.972 -20.5 105.312 C-22.68 112.459 -22.68 112.459 -24.837 119.613 C-25.114 120.501 -25.391 121.389 -25.676 122.305 C-26.092 123.671 -26.092 123.671 -26.517 125.066 C-27.5 127.312 -27.5 127.312 -30.5 129.312 C-34.986 129.757 -39.494 129.637 -44 129.625 C-45.874 129.649 -45.874 129.649 -47.785 129.674 C-48.98 129.674 -50.175 129.675 -51.406 129.676 C-53.051 129.68 -53.051 129.68 -54.729 129.685 C-57.5 129.312 -57.5 129.312 -59.38 128.053 C-61.712 124.43 -60.345 120.315 -59.5 116.312 C-57.949 111.01 -56.118 105.823 -54.25 100.625 C-53.766 99.256 -53.283 97.887 -52.801 96.518 C-52.081 94.474 -51.361 92.431 -50.637 90.388 C-47.2 80.675 -43.869 70.935 -41.125 61 C-39.465 55.158 -37.479 49.559 -35.188 43.938 C-31.532 34.97 -28.862 25.757 -26.253 16.438 C-25.937 15.328 -25.622 14.218 -25.297 13.074 C-25.022 12.084 -24.747 11.093 -24.464 10.073 C-23.42 7.083 -22.45 4.819 -20.5 2.312 C-14.031 -0.711 -6.99 -0.017 0 0 Z M-1.5 42.312 C-1.737 43.095 -1.974 43.877 -2.219 44.683 C-3.288 48.207 -4.363 51.728 -5.438 55.25 C-5.811 56.482 -6.184 57.713 -6.568 58.982 C-6.926 60.152 -7.284 61.322 -7.652 62.527 C-7.982 63.611 -8.312 64.695 -8.652 65.812 C-9.5 68.312 -9.5 68.312 -10.5 69.312 C-10.5 70.963 -10.5 72.612 -10.5 74.312 C-3.9 74.312 2.7 74.312 9.5 74.312 C7.057 63.365 4.254 52.882 0.5 42.312 C-0.16 42.312 -0.82 42.312 -1.5 42.312 Z " fill="#FDCD5F" transform="translate(586.5,30.6875)"/>
<path d="M0 0 C1.579 -0.014 1.579 -0.014 3.19 -0.029 C4.335 -0.033 5.481 -0.038 6.661 -0.042 C8.435 -0.051 8.435 -0.051 10.244 -0.059 C12.759 -0.069 15.273 -0.075 17.788 -0.079 C21.589 -0.089 25.39 -0.12 29.191 -0.151 C65.576 -0.312 65.576 -0.312 78.275 11.271 C82.501 15.776 85.764 20.384 87.962 26.161 C88.409 27.306 88.409 27.306 88.865 28.474 C92.511 39.498 93.108 54.526 87.962 65.161 C86.146 68.316 84.137 71.245 81.962 74.161 C81.343 75.069 80.725 75.976 80.087 76.911 C71.879 85.602 58.076 89.604 46.403 90.084 C42.294 90.176 38.189 90.181 34.079 90.173 C33.296 90.172 32.513 90.171 31.706 90.17 C29.791 90.168 27.877 90.165 25.962 90.161 C25.978 91.675 25.978 91.675 25.994 93.219 C26.03 96.968 26.053 100.718 26.072 104.468 C26.082 106.09 26.096 107.711 26.113 109.333 C26.137 111.666 26.149 114 26.157 116.333 C26.168 117.056 26.178 117.779 26.189 118.524 C26.19 122.21 26.133 125.093 23.962 128.161 C19.642 130.321 13.832 129.346 9.087 129.349 C7.89 129.361 6.692 129.373 5.458 129.386 C4.307 129.388 3.156 129.39 1.97 129.392 C0.914 129.396 -0.141 129.4 -1.229 129.404 C-4.105 129.155 -5.69 128.82 -8.038 127.161 C-9.934 124.097 -10.29 121.756 -10.299 118.183 C-10.306 117.18 -10.313 116.178 -10.32 115.145 C-10.318 114.051 -10.315 112.958 -10.312 111.831 C-10.318 110.674 -10.323 109.518 -10.328 108.326 C-10.342 104.499 -10.341 100.672 -10.339 96.845 C-10.342 94.86 -10.344 92.876 -10.348 90.892 C-10.359 84.655 -10.36 78.419 -10.354 72.182 C-10.347 65.746 -10.36 59.31 -10.381 52.874 C-10.399 47.348 -10.405 41.822 -10.401 36.296 C-10.4 32.995 -10.404 29.695 -10.416 26.394 C-10.428 22.717 -10.422 19.04 -10.41 15.362 C-10.418 14.266 -10.425 13.171 -10.433 12.042 C-10.426 11.042 -10.419 10.043 -10.412 9.013 C-10.412 8.143 -10.412 7.274 -10.413 6.378 C-9.956 3.677 -9.163 2.832 -7.038 1.161 C-4.532 -0.092 -2.804 0.021 0 0 Z M25.962 29.161 C25.962 39.391 25.962 49.621 25.962 60.161 C29.765 61.429 32.947 60.902 36.837 60.411 C37.545 60.336 38.253 60.262 38.982 60.185 C44.889 59.459 49.004 57.806 52.712 53.099 C56.012 48.791 56.674 45.539 55.962 40.161 C53.547 35.332 50.668 32.754 45.962 30.161 C39.361 28.671 39.361 28.671 25.962 29.161 Z " fill="#E1B3D7" transform="translate(68.037841796875,30.8388671875)"/>
<path d="M0 0 C1.416 0.019 2.832 0.038 4.247 0.057 C7.192 0.098 10.137 0.143 13.082 0.191 C16.859 0.252 20.636 0.299 24.414 0.342 C27.327 0.377 30.241 0.422 33.154 0.468 C34.548 0.489 35.941 0.507 37.335 0.522 C39.274 0.543 41.212 0.579 43.15 0.615 C44.253 0.631 45.355 0.647 46.491 0.664 C49.094 0.949 49.094 0.949 51.094 2.949 C51.353 5.531 51.353 5.531 51.359 8.762 C51.363 10.498 51.363 10.498 51.367 12.27 C51.359 13.484 51.352 14.698 51.344 15.949 C51.355 17.771 51.355 17.771 51.367 19.629 C51.365 20.786 51.362 21.944 51.359 23.137 C51.357 24.203 51.355 25.269 51.353 26.367 C51.094 28.949 51.094 28.949 49.094 30.949 C47.183 31.228 47.183 31.228 44.828 31.268 C43.947 31.288 43.066 31.308 42.159 31.328 C40.73 31.346 40.73 31.346 39.273 31.363 C37.813 31.392 37.813 31.392 36.323 31.422 C33.205 31.482 30.087 31.528 26.969 31.574 C24.858 31.612 22.747 31.651 20.637 31.691 C15.456 31.788 10.275 31.872 5.094 31.949 C5.589 41.354 5.589 41.354 6.094 50.949 C8.597 50.998 11.1 51.047 13.68 51.098 C16.099 51.152 18.518 51.209 20.938 51.267 C22.621 51.305 24.305 51.34 25.989 51.371 C28.407 51.417 30.825 51.475 33.242 51.535 C33.997 51.547 34.753 51.558 35.531 51.57 C40.866 51.721 40.866 51.721 43.094 53.949 C43.553 58.265 43.418 62.612 43.406 66.949 C43.422 68.164 43.438 69.378 43.455 70.629 C43.456 71.786 43.456 72.944 43.457 74.137 C43.46 75.203 43.463 76.269 43.466 77.367 C43.343 78.219 43.22 79.071 43.094 79.949 C39.437 82.387 36.6 82.296 32.363 82.363 C31.613 82.383 30.862 82.402 30.089 82.422 C27.695 82.482 25.301 82.528 22.906 82.574 C21.282 82.612 19.658 82.651 18.033 82.691 C14.054 82.787 10.074 82.871 6.094 82.949 C6.09 84.266 6.086 85.584 6.081 86.941 C6.06 91.822 6.005 96.702 5.941 101.583 C5.918 103.697 5.904 105.81 5.898 107.924 C5.889 110.961 5.848 113.995 5.801 117.031 C5.807 118.452 5.807 118.452 5.813 119.901 C5.758 122.349 5.655 124.566 5.094 126.949 C1.912 129.965 -0.963 130.332 -5.25 130.348 C-6.249 130.352 -7.248 130.355 -8.277 130.359 C-9.826 130.342 -9.826 130.342 -11.406 130.324 C-12.439 130.336 -13.471 130.347 -14.535 130.359 C-20.32 130.337 -24.602 130.253 -28.906 125.949 C-29.011 124.405 -29.046 122.855 -29.053 121.307 C-29.061 120.303 -29.068 119.299 -29.075 118.265 C-29.078 117.154 -29.08 116.044 -29.083 114.899 C-29.09 113.737 -29.096 112.574 -29.103 111.377 C-29.123 107.51 -29.135 103.644 -29.145 99.777 C-29.149 98.461 -29.153 97.144 -29.157 95.787 C-29.176 89.537 -29.19 83.288 -29.198 77.038 C-29.208 69.822 -29.235 62.606 -29.275 55.389 C-29.305 49.814 -29.32 44.238 -29.323 38.663 C-29.326 35.332 -29.337 32.002 -29.36 28.671 C-29.384 24.952 -29.383 21.235 -29.376 17.517 C-29.389 16.414 -29.402 15.312 -29.415 14.176 C-29.384 9.674 -29.357 6.762 -27.147 2.777 C-24.719 0.797 -23.675 0.279 -20.588 0.134 C-19.705 0.087 -18.823 0.041 -17.913 -0.006 C-11.939 -0.095 -5.974 -0.094 0 0 Z " fill="#A3D1D1" transform="translate(114.90625,181.05078125)"/>
<path d="M0 0 C0.818 -0.005 1.636 -0.01 2.48 -0.015 C5.189 -0.03 7.899 -0.036 10.608 -0.042 C12.493 -0.048 14.378 -0.054 16.262 -0.059 C20.217 -0.07 24.171 -0.076 28.125 -0.079 C33.184 -0.085 38.242 -0.109 43.3 -0.137 C47.195 -0.156 51.09 -0.161 54.985 -0.162 C56.849 -0.165 58.713 -0.173 60.578 -0.187 C63.191 -0.204 65.804 -0.202 68.418 -0.195 C69.183 -0.205 69.948 -0.214 70.736 -0.223 C75.728 -0.185 81.231 0.424 84.968 4.161 C85.248 8.112 85.2 12.076 85.218 16.036 C85.238 17.151 85.259 18.266 85.28 19.415 C85.288 21.018 85.288 21.018 85.296 22.653 C85.305 23.637 85.315 24.62 85.324 25.633 C84.968 28.161 84.968 28.161 83.635 29.943 C80.113 32.516 76.751 32.278 72.55 32.259 C71.296 32.256 70.043 32.252 68.751 32.249 C67.441 32.241 66.13 32.232 64.78 32.224 C63.445 32.219 62.11 32.214 60.774 32.21 C57.505 32.198 54.237 32.182 50.968 32.161 C50.977 33.332 50.986 34.503 50.995 35.71 C51.076 46.731 51.136 57.752 51.175 68.774 C51.196 74.441 51.224 80.107 51.27 85.774 C51.313 91.24 51.337 96.705 51.347 102.171 C51.355 104.259 51.369 106.348 51.391 108.436 C51.42 111.355 51.424 114.273 51.422 117.192 C51.436 118.06 51.451 118.928 51.465 119.823 C51.425 125.664 51.425 125.664 49.095 128.197 C46.496 129.375 44.574 129.549 41.722 129.56 C40.719 129.563 39.717 129.567 38.685 129.571 C37.644 129.56 36.603 129.548 35.53 129.536 C34.493 129.548 33.456 129.559 32.388 129.571 C22.843 129.535 22.843 129.535 18.968 126.161 C17.309 122.844 17.839 119.135 17.854 115.489 C17.854 114.591 17.854 113.694 17.854 112.769 C17.855 109.793 17.862 106.817 17.87 103.841 C17.872 101.781 17.873 99.721 17.874 97.661 C17.878 92.233 17.888 86.805 17.899 81.376 C17.909 75.84 17.914 70.303 17.919 64.767 C17.93 53.898 17.947 43.03 17.968 32.161 C17.206 32.177 16.445 32.193 15.66 32.209 C12.2 32.271 8.741 32.31 5.28 32.349 C4.082 32.374 2.884 32.399 1.649 32.425 C0.492 32.434 -0.664 32.444 -1.856 32.454 C-2.92 32.47 -3.983 32.486 -5.078 32.502 C-8.484 32.109 -10.298 31.2 -13.032 29.161 C-15.938 24.803 -15.4 20.851 -15.407 15.724 C-15.432 14.769 -15.456 13.815 -15.481 12.831 C-15.511 5.838 -15.511 5.838 -13.196 2.563 C-8.942 -0.193 -4.888 0.007 0 0 Z " fill="#FDA677" transform="translate(438.0322265625,30.8388671875)"/>
<path d="M0 0 C1.556 -0.024 1.556 -0.024 3.143 -0.049 C4.146 -0.049 5.15 -0.05 6.184 -0.051 C7.096 -0.054 8.007 -0.057 8.947 -0.06 C12.347 0.424 13.932 1.059 16.562 3.312 C17.077 6.476 17.253 9.112 17.222 12.282 C17.232 13.199 17.243 14.117 17.254 15.062 C17.283 18.097 17.276 21.132 17.27 24.168 C17.283 26.271 17.298 28.374 17.315 30.478 C17.355 36.016 17.365 41.555 17.369 47.093 C17.379 52.744 17.416 58.394 17.451 64.045 C17.516 75.134 17.549 86.223 17.562 97.312 C18.117 97.318 18.672 97.324 19.244 97.33 C25.019 97.394 30.794 97.479 36.569 97.575 C38.724 97.608 40.879 97.636 43.035 97.659 C46.133 97.692 49.23 97.745 52.328 97.801 C53.292 97.807 54.255 97.814 55.248 97.82 C56.149 97.84 57.05 97.86 57.978 97.88 C58.768 97.891 59.559 97.902 60.373 97.914 C63.131 98.416 64.532 99.404 66.562 101.312 C67.064 103.992 67.064 103.992 67.059 107.188 C67.059 108.337 67.06 109.487 67.061 110.672 C67.041 111.873 67.021 113.075 67 114.312 C67.007 115.514 67.014 116.715 67.021 117.953 C66.958 126.71 66.958 126.71 65.485 128.956 C62.531 131.041 59.981 130.694 56.401 130.701 C55.312 130.709 55.312 130.709 54.202 130.717 C51.802 130.73 49.404 130.721 47.004 130.711 C45.336 130.713 43.669 130.716 42.001 130.72 C38.505 130.724 35.009 130.718 31.512 130.704 C27.032 130.687 22.552 130.696 18.072 130.714 C14.628 130.725 11.183 130.722 7.739 130.714 C6.087 130.712 4.435 130.714 2.783 130.721 C0.473 130.729 -1.836 130.717 -4.146 130.701 C-5.461 130.698 -6.775 130.696 -8.129 130.693 C-13.159 130.114 -13.159 130.114 -15.438 127.312 C-16.707 121.254 -16.58 115.129 -16.567 108.956 C-16.569 107.95 -16.57 106.944 -16.572 105.908 C-16.577 102.6 -16.574 99.292 -16.57 95.984 C-16.571 93.67 -16.572 91.356 -16.573 89.043 C-16.575 84.197 -16.573 79.352 -16.568 74.507 C-16.562 68.323 -16.565 62.139 -16.571 55.954 C-16.575 51.176 -16.574 46.397 -16.571 41.619 C-16.571 39.34 -16.571 37.061 -16.574 34.782 C-16.597 6.111 -16.597 6.111 -15.438 2.312 C-10.812 -0.8 -5.365 -0.017 0 0 Z " fill="#F6918D" transform="translate(335.4375,180.6875)"/>
<path d="M0 0 C1.137 -0.028 2.274 -0.057 3.445 -0.086 C4.544 -0.089 5.642 -0.091 6.773 -0.094 C7.776 -0.101 8.778 -0.108 9.81 -0.115 C13.895 0.778 15.119 2.136 17.625 5.5 C18.377 9.299 18.308 13.05 18.272 16.912 C18.281 18.065 18.289 19.219 18.299 20.407 C18.321 24.22 18.306 28.031 18.289 31.844 C18.292 34.493 18.297 37.142 18.304 39.79 C18.313 45.342 18.301 50.893 18.277 56.445 C18.25 62.858 18.258 69.27 18.286 75.683 C18.309 81.194 18.312 86.706 18.299 92.218 C18.291 95.507 18.292 98.796 18.306 102.086 C18.319 105.754 18.3 109.42 18.272 113.088 C18.282 114.175 18.292 115.262 18.303 116.382 C18.199 123.747 18.199 123.747 15.213 127.663 C10.319 131.137 5.499 130.713 -0.312 130.75 C-1.51 130.781 -1.51 130.781 -2.732 130.812 C-7.474 130.844 -10.485 130.515 -14.375 127.5 C-16.014 125.861 -15.508 123.991 -15.515 121.73 C-15.521 120.698 -15.527 119.666 -15.533 118.603 C-15.534 117.461 -15.535 116.319 -15.536 115.143 C-15.541 113.948 -15.546 112.753 -15.551 111.522 C-15.563 108.235 -15.571 104.947 -15.575 101.66 C-15.578 99.608 -15.582 97.556 -15.587 95.504 C-15.6 89.087 -15.61 82.671 -15.614 76.255 C-15.618 68.84 -15.636 61.425 -15.665 54.01 C-15.686 48.284 -15.697 42.558 -15.698 36.833 C-15.699 33.41 -15.705 29.988 -15.723 26.566 C-15.74 22.749 -15.738 18.933 -15.731 15.116 C-15.741 13.978 -15.75 12.84 -15.759 11.668 C-15.754 10.63 -15.748 9.593 -15.742 8.524 C-15.744 7.621 -15.745 6.718 -15.747 5.787 C-14.501 -1.875 -5.94 -0.013 0 0 Z " fill="#FDBCAA" transform="translate(433.375,180.5)"/>
<path d="M0 0 C1.109 0.001 2.218 0.001 3.361 0.002 C5.099 0.026 5.099 0.026 6.871 0.051 C8.033 0.048 9.195 0.044 10.393 0.041 C19.042 0.096 19.042 0.096 21.309 2.363 C20.09 2.352 18.872 2.34 17.617 2.328 C15.993 2.319 14.37 2.31 12.746 2.301 C11.946 2.292 11.146 2.284 10.322 2.275 C5.549 2.256 0.992 2.385 -3.691 3.363 C-4.021 4.023 -4.351 4.683 -4.691 5.363 C-5.351 5.363 -6.011 5.363 -6.691 5.363 C-6.691 44.963 -6.691 84.563 -6.691 125.363 C-0.851 126.823 2.77 127.621 8.496 127.551 C9.665 127.544 10.834 127.538 12.039 127.531 C14.912 127.384 17.514 127.021 20.309 126.363 C20.804 124.878 20.804 124.878 21.309 123.363 C21.969 123.363 22.629 123.363 23.309 123.363 C23.309 84.423 23.309 45.483 23.309 5.363 C23.639 5.363 23.969 5.363 24.309 5.363 C24.425 20.792 24.514 36.222 24.568 51.651 C24.593 58.816 24.629 65.98 24.686 73.144 C24.736 79.389 24.768 85.633 24.779 91.878 C24.786 95.184 24.803 98.49 24.837 101.796 C24.873 105.488 24.879 109.179 24.876 112.872 C24.894 113.967 24.912 115.061 24.931 116.189 C24.88 123.611 24.88 123.611 21.901 127.532 C17 130.994 12.184 130.576 6.371 130.613 C5.173 130.644 5.173 130.644 3.951 130.676 C-0.791 130.707 -3.801 130.378 -7.691 127.363 C-9.331 125.724 -8.824 123.855 -8.832 121.594 C-8.838 120.562 -8.843 119.53 -8.849 118.466 C-8.85 117.325 -8.851 116.183 -8.853 115.006 C-8.858 113.811 -8.862 112.616 -8.868 111.385 C-8.88 108.098 -8.887 104.811 -8.892 101.523 C-8.895 99.471 -8.899 97.419 -8.903 95.367 C-8.917 88.951 -8.926 82.534 -8.93 76.118 C-8.935 68.703 -8.952 61.288 -8.981 53.873 C-9.003 48.147 -9.013 42.422 -9.014 36.696 C-9.015 33.274 -9.021 29.851 -9.039 26.429 C-9.056 22.612 -9.054 18.796 -9.048 14.979 C-9.057 13.841 -9.066 12.703 -9.076 11.531 C-9.07 10.494 -9.065 9.456 -9.059 8.387 C-9.06 7.484 -9.062 6.581 -9.063 5.651 C-8.197 0.326 -4.798 -0.014 0 0 Z " fill="#FBD0C6" transform="translate(426.69140625,180.63671875)"/>
<path d="M0 0 C1.745 0.01 1.745 0.01 3.525 0.02 C4.74 0.036 5.955 0.053 7.207 0.07 C8.434 0.079 9.66 0.088 10.924 0.098 C13.956 0.121 16.988 0.154 20.02 0.195 C20.02 0.525 20.02 0.855 20.02 1.195 C11.77 1.195 3.52 1.195 -4.98 1.195 C-4.96 4.057 -4.939 6.92 -4.917 9.868 C-4.851 19.312 -4.807 28.756 -4.773 38.199 C-4.752 43.927 -4.724 49.654 -4.679 55.381 C-4.635 60.905 -4.611 66.429 -4.601 71.953 C-4.594 74.064 -4.579 76.174 -4.558 78.285 C-4.529 81.235 -4.525 84.184 -4.526 87.134 C-4.505 88.45 -4.505 88.45 -4.483 89.793 C-4.523 95.697 -4.523 95.697 -6.853 98.237 C-9.452 99.407 -11.378 99.583 -14.227 99.594 C-15.73 99.6 -15.73 99.6 -17.264 99.605 C-18.305 99.594 -19.346 99.582 -20.418 99.57 C-21.455 99.582 -22.492 99.594 -23.561 99.605 C-33.105 99.569 -33.105 99.569 -36.98 96.195 C-38.332 93.492 -38.1 91.395 -38.094 88.369 C-38.094 86.537 -38.094 86.537 -38.094 84.668 C-38.089 83.331 -38.083 81.994 -38.078 80.656 C-38.076 79.291 -38.075 77.927 -38.074 76.562 C-38.07 72.968 -38.06 69.374 -38.049 65.781 C-38.039 62.114 -38.034 58.448 -38.029 54.781 C-38.019 47.586 -38.001 40.391 -37.98 33.195 C-37.65 33.195 -37.32 33.195 -36.98 33.195 C-36.65 53.655 -36.32 74.115 -35.98 95.195 C-30.7 95.525 -25.42 95.855 -19.98 96.195 C-19.98 96.525 -19.98 96.855 -19.98 97.195 C-16.68 97.525 -13.38 97.855 -9.98 98.195 C-9.485 96.71 -9.485 96.71 -8.98 95.195 C-8.32 95.195 -7.66 95.195 -6.98 95.195 C-6.98 64.835 -6.98 34.475 -6.98 3.195 C-7.64 2.865 -8.3 2.535 -8.98 2.195 C-5.487 -0.134 -4.12 -0.04 0 0 Z " fill="#F4BB9C" transform="translate(493.98046875,60.8046875)"/>
<path d="M0 0 C3.941 0 7.881 -0.014 11.822 -0.031 C14.878 -0.042 17.933 -0.044 20.989 -0.043 C22.444 -0.045 23.9 -0.049 25.355 -0.057 C27.369 -0.066 29.383 -0.062 31.396 -0.058 C32.54 -0.059 33.683 -0.06 34.861 -0.062 C37.548 0.185 37.548 0.185 39.548 2.185 C28.37 2.339 17.191 2.487 6.013 2.628 C0.823 2.694 -4.367 2.762 -9.558 2.833 C-14.563 2.903 -19.569 2.967 -24.574 3.028 C-26.487 3.052 -28.4 3.078 -30.313 3.106 C-32.986 3.144 -35.658 3.176 -38.33 3.207 C-39.127 3.22 -39.924 3.233 -40.745 3.246 C-46.224 3.299 -46.224 3.299 -48.452 2.185 C-49.639 5.746 -49.803 9.159 -50.014 12.873 C-50.057 13.575 -50.101 14.277 -50.145 15 C-50.251 16.728 -50.352 18.457 -50.452 20.185 C-52.452 18.185 -52.452 18.185 -52.717 15.541 C-52.712 14.495 -52.707 13.45 -52.702 12.373 C-52.709 10.816 -52.709 10.816 -52.717 9.228 C-52.448 6.149 -51.653 4.006 -50.452 1.185 C-33.642 0.05 -16.839 -0.002 0 0 Z " fill="#F6A06D" transform="translate(476.45166015625,31.814697265625)"/>
<path d="M0 0 C1.109 0.001 2.218 0.001 3.361 0.002 C5.099 0.026 5.099 0.026 6.871 0.051 C8.033 0.048 9.195 0.044 10.393 0.041 C19.042 0.096 19.042 0.096 21.309 2.363 C20.09 2.352 18.872 2.34 17.617 2.328 C15.993 2.319 14.37 2.31 12.746 2.301 C11.946 2.292 11.146 2.284 10.322 2.275 C5.549 2.256 0.992 2.385 -3.691 3.363 C-4.021 4.023 -4.351 4.683 -4.691 5.363 C-5.351 5.363 -6.011 5.363 -6.691 5.363 C-6.761 20.94 -6.814 36.517 -6.847 52.094 C-6.862 59.327 -6.883 66.559 -6.918 73.792 C-6.948 80.096 -6.967 86.399 -6.974 92.703 C-6.978 96.041 -6.988 99.379 -7.009 102.717 C-7.03 106.443 -7.033 110.168 -7.032 113.894 C-7.043 115.001 -7.054 116.109 -7.065 117.25 C-7.061 118.265 -7.056 119.281 -7.052 120.327 C-7.055 121.208 -7.058 122.089 -7.061 122.997 C-6.618 125.835 -5.564 127.228 -3.691 129.363 C-7.566 127.488 -7.566 127.488 -8.691 126.363 C-8.794 124.776 -8.827 123.184 -8.832 121.594 C-8.838 120.562 -8.843 119.53 -8.849 118.466 C-8.85 117.325 -8.851 116.183 -8.853 115.006 C-8.858 113.811 -8.862 112.616 -8.868 111.385 C-8.88 108.098 -8.887 104.811 -8.892 101.523 C-8.895 99.471 -8.899 97.419 -8.903 95.367 C-8.917 88.951 -8.926 82.534 -8.93 76.118 C-8.935 68.703 -8.952 61.288 -8.981 53.873 C-9.003 48.147 -9.013 42.422 -9.014 36.696 C-9.015 33.274 -9.021 29.851 -9.039 26.429 C-9.056 22.612 -9.054 18.796 -9.048 14.979 C-9.057 13.841 -9.066 12.703 -9.076 11.531 C-9.07 10.494 -9.065 9.456 -9.059 8.387 C-9.06 7.484 -9.062 6.581 -9.063 5.651 C-8.197 0.326 -4.798 -0.014 0 0 Z " fill="#FED9CF" transform="translate(426.69140625,180.63671875)"/>
<path d="M0 0 C1.227 -0.008 1.227 -0.008 2.48 -0.015 C5.189 -0.029 7.899 -0.028 10.608 -0.026 C12.493 -0.03 14.378 -0.034 16.262 -0.039 C20.217 -0.047 24.171 -0.046 28.125 -0.041 C33.184 -0.035 38.242 -0.052 43.3 -0.075 C47.195 -0.09 51.09 -0.091 54.985 -0.088 C56.849 -0.088 58.713 -0.094 60.578 -0.104 C63.191 -0.116 65.804 -0.109 68.418 -0.098 C69.183 -0.105 69.948 -0.113 70.736 -0.121 C75.725 -0.072 81.234 0.541 84.968 4.275 C85.248 8.226 85.2 12.19 85.218 16.15 C85.238 17.265 85.259 18.38 85.28 19.529 C85.288 21.132 85.288 21.132 85.296 22.767 C85.305 23.75 85.315 24.734 85.324 25.747 C84.968 28.275 84.968 28.275 83.635 30.119 C81.968 31.275 81.968 31.275 78.968 31.275 C78.968 30.615 78.968 29.955 78.968 29.275 C79.958 28.945 80.948 28.615 81.968 28.275 C82.298 21.015 82.628 13.755 82.968 6.275 C81.978 5.78 81.978 5.78 80.968 5.275 C80.473 3.79 80.473 3.79 79.968 2.275 C49.938 2.275 19.908 2.275 -11.032 2.275 C-7.281 -0.226 -4.343 -0.014 0 0 Z " fill="#E4A985" transform="translate(438.0322265625,30.725341796875)"/>
<path d="M0 0 C0.495 0.99 0.495 0.99 1 2 C-2.605 0.891 -6.014 -0.429 -9.438 -2 C-16.614 -5.195 -22.486 -6.202 -30.328 -5.973 C-33 -6 -33 -6 -36 -7 C-46.593 -7.582 -55.443 -7.415 -65 -2.438 C-68.885 -0.576 -72.786 0.204 -77 1 C-73.932 -2.492 -71.152 -4.018 -66.812 -5.625 C-65.746 -6.03 -64.68 -6.435 -63.582 -6.852 C-42.337 -13.663 -19.124 -11.469 0 0 Z " fill="#F9D795" transform="translate(573,190)"/>
<path d="M0 0 C0.66 0 1.32 0 2 0 C1.76 0.866 1.76 0.866 1.516 1.75 C-0.755 11.659 2.584 21.858 6.238 31.043 C7.64 34.643 8.802 38.328 10 42 C7.495 43.252 5.791 43.114 2.992 43.098 C2.006 43.094 1.02 43.091 0.004 43.088 C-1.029 43.08 -2.061 43.071 -3.125 43.062 C-4.685 43.056 -4.685 43.056 -6.277 43.049 C-8.852 43.037 -11.426 43.021 -14 43 C-14 42.34 -14 41.68 -14 41 C-7.4 41 -0.8 41 6 41 C5.443 39.391 4.886 37.782 4.312 36.125 C2.463 30.584 0.818 25.002 -0.75 19.375 C-0.973 18.581 -1.195 17.787 -1.425 16.969 C-3 11.252 -3 11.252 -3 9 C-3.66 9 -4.32 9 -5 9 C-5.33 9.99 -5.66 10.98 -6 12 C-6.312 9.188 -6.312 9.188 -6 6 C-3.562 4.312 -3.562 4.312 -1 3 C-0.67 2.01 -0.34 1.02 0 0 Z " fill="#F8D281" transform="translate(590,64)"/>
<path d="M0 0 C4.196 6.294 7.184 15.39 6 23 C1.153 26.231 -4.178 25.328 -9.875 25.312 C-11.06 25.329 -12.244 25.345 -13.465 25.361 C-14.608 25.362 -15.752 25.363 -16.93 25.363 C-17.974 25.366 -19.018 25.369 -20.093 25.372 C-23.424 24.946 -25.301 23.963 -28 22 C-30.416 18.058 -31.432 13.604 -31 9 C-30.01 9.495 -30.01 9.495 -29 10 C-28.375 12.562 -28.375 12.562 -28 15 C-27.01 14.67 -26.02 14.34 -25 14 C-24.876 14.969 -24.753 15.939 -24.625 16.938 C-24.316 18.453 -24.316 18.453 -24 20 C-23.34 20.33 -22.68 20.66 -22 21 C-22.33 21.33 -22.66 21.66 -23 22 C-14.75 22.33 -6.5 22.66 2 23 C2.212 13.647 2.212 13.647 0 6 C-0.125 2.625 -0.125 2.625 0 0 Z " fill="#F8DB92" transform="translate(640,135)"/>
<path d="M0 0 C0.33 0 0.66 0 1 0 C1.124 5.32 1.214 10.639 1.275 15.961 C1.3 17.77 1.334 19.579 1.377 21.387 C1.438 23.992 1.466 26.594 1.488 29.199 C1.514 30.005 1.54 30.81 1.566 31.64 C1.569 35.793 1.329 37.541 -1.163 41.015 C-4.414 43.289 -5.962 43.611 -9.887 43.559 C-10.99 43.552 -12.092 43.544 -13.229 43.537 C-14.37 43.504 -15.511 43.471 -16.688 43.438 C-17.841 43.432 -18.994 43.426 -20.182 43.42 C-28.705 43.295 -28.705 43.295 -31 41 C-30.34 40.975 -29.68 40.95 -29 40.924 C-25.979 40.807 -22.958 40.685 -19.938 40.562 C-18.899 40.523 -17.861 40.484 -16.791 40.443 C-15.268 40.381 -15.268 40.381 -13.715 40.316 C-12.788 40.28 -11.861 40.243 -10.906 40.205 C-7.573 39.97 -4.302 39.505 -1 39 C-1.008 37.281 -1.008 37.281 -1.016 35.528 C-1.034 31.292 -1.045 27.056 -1.055 22.82 C-1.06 20.983 -1.067 19.147 -1.075 17.311 C-1.088 14.677 -1.093 12.044 -1.098 9.41 C-1.103 8.584 -1.108 7.758 -1.113 6.907 C-1.113 4.938 -1.062 2.968 -1 1 C-0.67 0.67 -0.34 0.34 0 0 Z " fill="#F2CA76" transform="translate(346,117)"/>
<path d="M0 0 C1.32 0 2.64 0 4 0 C3.788 0.525 3.577 1.05 3.359 1.591 C1.065 7.759 0.558 13.209 0.568 19.752 C0.557 20.787 0.547 21.823 0.537 22.889 C0.507 26.282 0.497 29.674 0.488 33.066 C0.471 35.43 0.453 37.794 0.434 40.157 C0.386 46.357 0.357 52.556 0.33 58.756 C0.301 65.09 0.254 71.425 0.209 77.76 C0.123 90.173 0.056 102.586 0 115 C-0.33 115 -0.66 115 -1 115 C-1.023 100.596 -1.041 86.193 -1.052 71.789 C-1.057 65.102 -1.064 58.414 -1.075 51.726 C-1.086 45.275 -1.092 38.823 -1.095 32.372 C-1.097 29.908 -1.1 27.444 -1.106 24.98 C-1.113 21.534 -1.114 18.089 -1.114 14.644 C-1.117 13.62 -1.121 12.596 -1.124 11.542 C-1.123 10.602 -1.122 9.663 -1.12 8.695 C-1.121 7.88 -1.122 7.065 -1.123 6.226 C-1.001 4.027 -0.609 2.111 0 0 Z " fill="#A7CAC4" transform="translate(88,185)"/>
<path d="M0 0 C0.33 0 0.66 0 1 0 C1.33 20.46 1.66 40.92 2 62 C7.28 62.33 12.56 62.66 18 63 C18 63.33 18 63.66 18 64 C21.3 64.33 24.6 64.66 28 65 C28 64.34 28 63.68 28 63 C29.32 63.33 30.64 63.66 32 64 C27.451 67.032 22.975 66.329 17.625 66.312 C16.063 66.337 16.063 66.337 14.469 66.361 C4.851 66.367 4.851 66.367 1 63 C-0.351 60.297 -0.12 58.199 -0.114 55.173 C-0.113 53.342 -0.113 53.342 -0.113 51.473 C-0.108 50.136 -0.103 48.798 -0.098 47.461 C-0.096 46.096 -0.094 44.731 -0.093 43.367 C-0.09 39.773 -0.08 36.179 -0.069 32.585 C-0.058 28.919 -0.054 25.252 -0.049 21.586 C-0.038 14.391 -0.021 7.195 0 0 Z " fill="#FBBD9B" transform="translate(456,94)"/>
<path d="M0 0 C0.99 0 1.98 0 3 0 C3.66 3.3 4.32 6.6 5 10 C15.23 10.33 25.46 10.66 36 11 C36.66 9.68 37.32 8.36 38 7 C37.625 9.937 37.625 9.937 37 13 C34.263 14.368 32.064 14.13 29.004 14.133 C27.806 14.134 26.608 14.135 25.373 14.137 C24.116 14.133 22.858 14.129 21.562 14.125 C20.309 14.129 19.055 14.133 17.764 14.137 C15.964 14.135 15.964 14.135 14.129 14.133 C13.026 14.132 11.923 14.131 10.787 14.129 C8 14 8 14 5 13 C3.613 10.059 3.613 10.059 2.312 6.438 C1.876 5.24 1.439 4.042 0.988 2.809 C0.662 1.882 0.336 0.955 0 0 Z " fill="#F6D68E" transform="translate(374,146)"/>
<path d="M0 0 C1.306 -0.016 2.612 -0.032 3.957 -0.049 C5.219 -0.049 6.481 -0.05 7.781 -0.051 C8.927 -0.054 10.072 -0.057 11.252 -0.06 C14.893 0.358 17.339 1.503 20.5 3.312 C20.5 3.972 20.5 4.633 20.5 5.312 C18.85 5.312 17.2 5.312 15.5 5.312 C15.005 4.322 15.005 4.322 14.5 3.312 C3.28 3.312 -7.94 3.312 -19.5 3.312 C-19.83 4.962 -20.16 6.612 -20.5 8.312 C-21.412 11.019 -22.462 13.65 -23.5 16.312 C-24.16 16.312 -24.82 16.312 -25.5 16.312 C-23.58 5.942 -23.58 5.942 -20.5 2.312 C-13.795 -0.455 -7.14 -0.018 0 0 Z " fill="#EFD38A" transform="translate(586.5,30.6875)"/>
<path d="M0 0 C0.33 0 0.66 0 1 0 C1.108 2.584 1.187 5.164 1.25 7.75 C1.3 8.844 1.3 8.844 1.352 9.961 C1.417 13.572 1.401 15.516 -0.945 18.348 C-1.623 18.893 -2.301 19.438 -3 20 C-4.426 23.407 -5.185 26.838 -5.938 30.438 C-6.817 34.589 -8.203 38.161 -10 42 C-10.66 42 -11.32 42 -12 42 C-12.33 42.66 -12.66 43.32 -13 44 C-12.162 38.456 -10.861 33.388 -8.75 28.188 C-5.065 19.036 -2.603 9.504 0 0 Z " fill="#F7D382" transform="translate(548,83)"/>
<path d="M0 0 C7.876 -0.07 15.753 -0.123 23.63 -0.155 C27.288 -0.171 30.947 -0.192 34.605 -0.226 C38.146 -0.259 41.686 -0.277 45.226 -0.285 C47.213 -0.293 49.2 -0.316 51.188 -0.34 C59.048 -0.341 66.584 0.17 74 3 C74.495 3.99 74.495 3.99 75 5 C73.113 5.062 73.113 5.062 71.188 5.125 C70.126 5.16 70.126 5.16 69.043 5.195 C67 5 67 5 64 3 C60.324 2.027 56.808 1.852 53.016 1.795 C51.836 1.775 50.655 1.755 49.438 1.734 C47.541 1.709 47.541 1.709 45.605 1.684 C43.652 1.652 43.652 1.652 41.659 1.621 C38.208 1.566 34.757 1.516 31.307 1.468 C27.78 1.417 24.254 1.362 20.729 1.307 C13.819 1.199 6.91 1.098 0 1 C0 0.67 0 0.34 0 0 Z " fill="#EAD18C" transform="translate(315,31)"/>
<path d="M0 0 C0.66 0.33 1.32 0.66 2 1 C1.67 1.99 1.34 2.98 1 4 C-13.19 4 -27.38 4 -42 4 C-41.34 3.01 -40.68 2.02 -40 1 C-37.032 0.746 -34.274 0.676 -31.309 0.742 C-30.448 0.749 -29.588 0.755 -28.701 0.762 C-25.946 0.786 -23.192 0.829 -20.438 0.875 C-17.679 0.91 -14.921 0.941 -12.163 0.966 C-10.445 0.983 -8.726 1.007 -7.008 1.036 C-5.006 1.062 -3.002 1.036 -1 1 C-0.67 0.67 -0.34 0.34 0 0 Z " fill="#C5DDDA" transform="translate(163,208)"/>
<path d="M0 0 C0.33 0 0.66 0 1 0 C1.33 3.3 1.66 6.6 2 10 C2.66 10 3.32 10 4 10 C4 10.66 4 11.32 4 12 C4.66 12 5.32 12 6 12 C5.67 12.99 5.34 13.98 5 15 C3.68 14.67 2.36 14.34 1 14 C1 14.99 1 15.98 1 17 C1.66 17.33 2.32 17.66 3 18 C2.01 18 1.02 18 0 18 C-0.33 18.66 -0.66 19.32 -1 20 C-2.32 19.34 -3.64 18.68 -5 18 C-5.33 18.99 -5.66 19.98 -6 21 C-11.61 20.67 -17.22 20.34 -23 20 C-23 19.67 -23 19.34 -23 19 C-22.059 18.974 -21.118 18.948 -20.148 18.922 C-10.697 18.735 -10.697 18.735 -3 14 C-1.129 10.928 -0.656 8.314 -0.375 4.75 C-0.3 3.858 -0.225 2.966 -0.148 2.047 C-0.099 1.371 -0.05 0.696 0 0 Z " fill="#F8CC6C" transform="translate(378,68)"/>
<path d="M0 0 C1.812 -0.027 3.625 -0.046 5.438 -0.062 C6.447 -0.074 7.456 -0.086 8.496 -0.098 C11 0 11 0 12 1 C14.32 1.281 16.639 1.448 18.969 1.621 C19.639 1.746 20.309 1.871 21 2 C22.382 4.765 22.095 7.046 22.062 10.125 C22.053 11.221 22.044 12.316 22.035 13.445 C22.024 14.288 22.012 15.131 22 16 C20.141 13.636 18.899 11.753 17.75 8.938 C15.367 4.938 13.322 4.521 9 3 C8.67 2.67 8.34 2.34 8 2 C6.653 1.769 5.296 1.588 3.938 1.438 C2.638 1.293 1.339 1.149 0 1 C0 0.67 0 0.34 0 0 Z " fill="#FBDB93" transform="translate(347,116)"/>
<path d="M0 0 C0.33 0.66 0.66 1.32 1 2 C0.67 2.99 0.34 3.98 0 5 C-0.069 7.061 -0.085 9.125 -0.062 11.188 C-0.053 12.274 -0.044 13.361 -0.035 14.48 C-0.024 15.312 -0.012 16.143 0 17 C0.66 16.01 1.32 15.02 2 14 C2 14.99 2 15.98 2 17 C3.65 17 5.3 17 7 17 C6.649 17.949 6.299 18.898 5.938 19.875 C4.65 22.871 4.65 22.871 6 25 C3.688 25.625 3.688 25.625 1 26 C0.01 25.34 -0.98 24.68 -2 24 C-2.372 21.893 -2.372 21.893 -2.363 19.316 C-2.362 17.925 -2.362 17.925 -2.361 16.506 C-2.345 15.535 -2.329 14.563 -2.312 13.562 C-2.316 12.595 -2.319 11.628 -2.322 10.631 C-2.267 3.401 -2.267 3.401 0 0 Z " fill="#F6A980" transform="translate(425,33)"/>
<path d="M0 0 C0.33 0 0.66 0 1 0 C2.772 19.787 2.772 19.787 -1 27 C-1.411 27.824 -1.822 28.647 -2.246 29.496 C-5.546 35.773 -5.546 35.773 -8 37 C-7.589 31.795 -5.604 27.97 -3.156 23.465 C-0.795 18.431 -0.736 13.155 -0.438 7.688 C-0.373 6.577 -0.373 6.577 -0.307 5.443 C-0.201 3.629 -0.1 1.815 0 0 Z " fill="#F0A1BC" transform="translate(271,238)"/>
<path d="M0 0 C0.495 0.99 0.495 0.99 1 2 C1.66 2.33 2.32 2.66 3 3 C1.027 3.97 -0.954 4.925 -2.938 5.875 C-4.04 6.409 -5.142 6.942 -6.277 7.492 C-15.204 11.326 -23.957 11.253 -33.562 11.125 C-34.857 11.116 -36.152 11.107 -37.486 11.098 C-40.658 11.074 -43.829 11.041 -47 11 C-47 10.67 -47 10.34 -47 10 C-45.888 9.962 -45.888 9.962 -44.753 9.924 C-41.397 9.808 -38.042 9.685 -34.688 9.562 C-32.937 9.504 -32.937 9.504 -31.15 9.443 C-30.032 9.401 -28.914 9.36 -27.762 9.316 C-26.73 9.28 -25.698 9.243 -24.635 9.205 C-21.893 9.098 -21.893 9.098 -19 8 C-16.667 7.96 -14.333 7.956 -12 8 C-12 7.34 -12 6.68 -12 6 C-8 5 -4 4 0 3 C0 2.01 0 1.02 0 0 Z " fill="#F6DB91" transform="translate(566,301)"/>
<path d="M0 0 C7.59 0.33 15.18 0.66 23 1 C23.33 1.99 23.66 2.98 24 4 C16.08 4 8.16 4 0 4 C0 2.68 0 1.36 0 0 Z " fill="#FCCA54" transform="translate(346,88)"/>
<path d="M0 0 C6.75 0.75 6.75 0.75 9 3 C9.457 6.96 9.324 10.954 9.312 14.938 C9.329 16.048 9.345 17.159 9.361 18.303 C9.362 19.367 9.363 20.431 9.363 21.527 C9.366 22.504 9.369 23.481 9.372 24.488 C9 27 9 27 7.665 28.842 C6 30 6 30 3 30 C3 29.34 3 28.68 3 28 C3.99 27.67 4.98 27.34 6 27 C6.33 19.74 6.66 12.48 7 5 C6.34 4.67 5.68 4.34 5 4 C4.67 3.01 4.34 2.02 4 1 C1.985 0.267 1.985 0.267 0 0 Z " fill="#F4C0A0" transform="translate(514,32)"/>
<path d="M0 0 C4.309 6.463 6.885 15.214 6 23 C5 24 5 24 2.959 24.114 C2.084 24.108 1.21 24.103 0.309 24.098 C-0.636 24.094 -1.58 24.091 -2.553 24.088 C-4.043 24.075 -4.043 24.075 -5.562 24.062 C-6.56 24.058 -7.557 24.053 -8.584 24.049 C-11.056 24.037 -13.528 24.021 -16 24 C-16 23.67 -16 23.34 -16 23 C-10.06 23 -4.12 23 2 23 C2.153 16.708 2.204 11.924 0 6 C-0.125 2.625 -0.125 2.625 0 0 Z " fill="#F2D07D" transform="translate(640,135)"/>
<path d="M0 0 C2.64 0 5.28 0 8 0 C5.01 2.462 2.209 3.841 -1.438 5.125 C-2.828 5.624 -2.828 5.624 -4.246 6.133 C-9.287 7.72 -13.71 8.104 -19 8 C-18.67 7.01 -18.34 6.02 -18 5 C-12.239 3.702 -6.913 2.743 -1 3 C-0.67 2.01 -0.34 1.02 0 0 Z " fill="#EE9BB9" transform="translate(265,304)"/>
<path d="M0 0 C4.452 3.531 5.878 7.596 7 13 C7.518 17.999 7.808 22.977 8 28 C7.34 28 6.68 28 6 28 C6 23.71 6 19.42 6 15 C5.34 15 4.68 15 4 15 C4 12.69 4 10.38 4 8 C2.824 7.783 2.824 7.783 1.625 7.562 C-1 7 -1 7 -3 6 C-2 4 -1 2 0 0 Z " fill="#FAD68A" transform="translate(405,48)"/>
<path d="M0 0 C0.33 0.66 0.66 1.32 1 2 C0.67 2.99 0.34 3.98 0 5 C-0.99 5.33 -1.98 5.66 -3 6 C-4.885 7.86 -4.885 7.86 -6.688 10.062 C-7.31 10.796 -7.933 11.529 -8.574 12.285 C-9.045 12.851 -9.515 13.417 -10 14 C-10.66 13.67 -11.32 13.34 -12 13 C-12.99 14.98 -13.98 16.96 -15 19 C-15.99 18.67 -16.98 18.34 -18 18 C-14.089 12.689 -10.378 7.877 -5 4 C-4.34 4 -3.68 4 -3 4 C-3 3.34 -3 2.68 -3 2 C-2.01 1.34 -1.02 0.68 0 0 Z " fill="#F8CB6F" transform="translate(495,191)"/>
<path d="M0 0 C-3.271 2.95 -5.428 3.376 -9.789 3.363 C-10.895 3.363 -12.001 3.362 -13.141 3.361 C-14.29 3.345 -15.44 3.329 -16.625 3.312 C-17.783 3.316 -18.94 3.319 -20.133 3.322 C-28.733 3.267 -28.733 3.267 -31 1 C-29.994 0.962 -29.994 0.962 -28.968 0.924 C-25.916 0.808 -22.864 0.685 -19.812 0.562 C-18.757 0.523 -17.702 0.484 -16.615 0.443 C-15.083 0.381 -15.083 0.381 -13.52 0.316 C-12.582 0.28 -11.645 0.243 -10.679 0.205 C-7.985 0.061 -7.985 0.061 -5.343 -0.582 C-3 -1 -3 -1 0 0 Z " fill="#F8D792" transform="translate(346,157)"/>
<path d="M0 0 C12.043 0.42 22.654 3.741 33 10 C33.495 10.99 33.495 10.99 34 12 C30.395 10.891 26.986 9.571 23.562 8 C17.136 5.109 10.969 3.734 4 3 C4 2.34 4 1.68 4 1 C2.68 0.67 1.36 0.34 0 0 Z " fill="#F9DD98" transform="translate(540,180)"/>
<path d="M0 0 C2 1 2 1 3.053 3.62 C3.42 4.763 3.786 5.905 4.164 7.082 C4.564 8.324 4.963 9.566 5.375 10.846 C5.682 11.822 5.682 11.822 5.996 12.819 C6.62 14.797 7.258 16.771 7.898 18.744 C11 28.477 11 28.477 11 33 C10.34 33 9.68 33 9 33 C7.198 29.17 6.804 26.219 7 22 C6.34 22 5.68 22 5 22 C4.879 21.229 4.758 20.458 4.633 19.664 C4.465 18.661 4.298 17.658 4.125 16.625 C3.963 15.627 3.8 14.63 3.633 13.602 C3.204 10.857 3.204 10.857 1 9 C0.586 6.836 0.586 6.836 0.375 4.375 C0.3 3.558 0.225 2.74 0.148 1.898 C0.099 1.272 0.05 0.645 0 0 Z " fill="#F7DA96" transform="translate(614,58)"/>
<path d="M0 0 C1.4 0.095 2.796 0.254 4.188 0.438 C10.79 1.185 17.364 1.086 24 1 C24 1.66 24 2.32 24 3 C19.573 4.039 15.211 4.316 10.688 4.562 C9.947 4.606 9.206 4.649 8.443 4.693 C6.629 4.799 4.815 4.9 3 5 C3 4.34 3 3.68 3 3 C1.68 2.34 0.36 1.68 -1 1 C-0.67 0.67 -0.34 0.34 0 0 Z " fill="#ECA1BE" transform="translate(225,279)"/>
<path d="M0 0 C2.564 2.564 2.326 3.688 2.375 7.25 C2.257 13.684 0.114 16.769 -4.25 21.375 C-4.828 21.911 -5.405 22.448 -6 23 C-6.66 22.67 -7.32 22.34 -8 22 C-6.411 19.299 -4.852 16.817 -2.875 14.375 C-0.276 9.697 -0.188 5.277 0 0 Z " fill="#E3C2D9" transform="translate(124,68)"/>
<path d="M0 0 C0.66 0 1.32 0 2 0 C1.836 0.51 1.673 1.021 1.504 1.547 C0.833 4.813 0.907 7.919 0.938 11.25 C0.947 12.513 0.956 13.777 0.965 15.078 C0.976 16.042 0.988 17.007 1 18 C0.34 18 -0.32 18 -1 18 C-1.66 15.03 -2.32 12.06 -3 9 C-3.66 9 -4.32 9 -5 9 C-5.33 9.99 -5.66 10.98 -6 12 C-6.312 9.188 -6.312 9.188 -6 6 C-3.562 4.312 -3.562 4.312 -1 3 C-0.67 2.01 -0.34 1.02 0 0 Z " fill="#F9D17A" transform="translate(590,64)"/>
<path d="M0 0 C-0.33 0.66 -0.66 1.32 -1 2 C-9.58 2 -18.16 2 -27 2 C-26.67 1.34 -26.34 0.68 -26 0 C-23.487 -0.348 -21.088 -0.565 -18.562 -0.688 C-17.481 -0.748 -17.481 -0.748 -16.377 -0.81 C-10.844 -1.073 -5.482 -0.857 0 0 Z " fill="#F59D6A" transform="translate(458,60)"/>
<path d="M0 0 C0.33 0 0.66 0 1 0 C1 14.52 1 29.04 1 44 C-0.32 44.66 -1.64 45.32 -3 46 C-3 45.01 -3 44.02 -3 43 C-1.515 42.505 -1.515 42.505 0 42 C0 28.14 0 14.28 0 0 Z " fill="#B9D6D2" transform="translate(119,264)"/>
<path d="M0 0 C0.66 0.33 1.32 0.66 2 1 C1.261 2.9 0.508 4.795 -0.25 6.688 C-0.668 7.743 -1.085 8.799 -1.516 9.887 C-3.021 13.044 -4.625 15.439 -7 18 C-7.66 18 -8.32 18 -9 18 C-9 16.35 -9 14.7 -9 13 C-8.34 13 -7.68 13 -7 13 C-7 12.01 -7 11.02 -7 10 C-6.01 10 -5.02 10 -4 10 C-4.33 8.68 -4.66 7.36 -5 6 C-3.68 5.67 -2.36 5.34 -1 5 C-0.67 3.35 -0.34 1.7 0 0 Z " fill="#FADC94" transform="translate(593,273)"/>
<path d="M0 0 C0.66 0.33 1.32 0.66 2 1 C2 1.66 2 2.32 2 3 C2.66 3 3.32 3 4 3 C7 6.462 7 6.462 7 9 C5.68 9.33 4.36 9.66 3 10 C2.67 11.32 2.34 12.64 2 14 C1.34 14 0.68 14 0 14 C0 12.68 0 11.36 0 10 C-0.99 9.67 -1.98 9.34 -3 9 C-2.34 8.01 -1.68 7.02 -1 6 C-0.01 6 0.98 6 2 6 C1.34 4.02 0.68 2.04 0 0 Z " fill="#F9D475" transform="translate(582,198)"/>
<path d="M0 0 C0 0.99 0 1.98 0 3 C-3.264 4.374 -5.495 5 -9 5 C-8.67 5.99 -8.34 6.98 -8 8 C-12.308 11.938 -12.308 11.938 -15.812 12.25 C-16.534 12.167 -17.256 12.085 -18 12 C-13.798 6.36 -7.618 0 0 0 Z " fill="#E991B3" transform="translate(212,185)"/>
<path d="M0 0 C1.562 1.625 1.562 1.625 3 4 C2.688 7.25 2.688 7.25 2 10 C-0.751 10.917 -2.359 11.109 -5.188 11.062 C-7.075 11.032 -7.075 11.032 -9 11 C-9 10.67 -9 10.34 -9 10 C-7.35 10 -5.7 10 -4 10 C-4.33 8.35 -4.66 6.7 -5 5 C-3.35 4.67 -1.7 4.34 0 4 C0 2.68 0 1.36 0 0 Z " fill="#F8CE5F" transform="translate(408,147)"/>
<path d="M0 0 C-0.33 1.32 -0.66 2.64 -1 4 C-1.99 4 -2.98 4 -4 4 C-4 4.66 -4 5.32 -4 6 C-4.99 6 -5.98 6 -7 6 C-7 6.66 -7 7.32 -7 8 C-7.66 8 -8.32 8 -9 8 C-9.33 5.36 -9.66 2.72 -10 0 C-6.306 -1.231 -3.794 -0.644 0 0 Z " fill="#FCCC63" transform="translate(577,34)"/>
<path d="M0 0 C0.99 0.66 1.98 1.32 3 2 C2.01 2.33 1.02 2.66 0 3 C0 4.32 0 5.64 0 7 C-0.66 7 -1.32 7 -2 7 C-2.103 7.701 -2.206 8.403 -2.312 9.125 C-3.094 12.391 -4.421 15.047 -6 18 C-6.66 18 -7.32 18 -8 18 C-8.33 18.66 -8.66 19.32 -9 20 C-8.379 15.479 -6.571 11.758 -4.5 7.75 C-4.179 7.113 -3.858 6.476 -3.527 5.82 C-1.155 1.155 -1.155 1.155 0 0 Z " fill="#EC92B3" transform="translate(184,206)"/>
<path d="M0 0 C1.112 -0.003 2.225 -0.005 3.371 -0.008 C4.538 -0 5.704 0.008 6.906 0.016 C8.073 0.008 9.239 0 10.441 -0.008 C11.554 -0.005 12.666 -0.003 13.812 0 C14.837 0.002 15.861 0.005 16.916 0.007 C19.406 0.266 19.406 0.266 21.406 2.266 C20.188 2.254 18.97 2.242 17.715 2.23 C16.091 2.221 14.467 2.212 12.844 2.203 C12.044 2.195 11.244 2.186 10.42 2.178 C5.646 2.158 1.089 2.287 -3.594 3.266 C-3.924 3.926 -4.254 4.586 -4.594 5.266 C-5.254 5.266 -5.914 5.266 -6.594 5.266 C-6.924 6.586 -7.254 7.906 -7.594 9.266 C-7.719 5.891 -7.719 5.891 -7.594 2.266 C-4.947 -0.381 -3.69 0.008 0 0 Z " fill="#F8D6CC" transform="translate(426.59375,180.734375)"/>
<path d="M0 0 C1.628 0.004 3.255 0.019 4.883 0.043 C5.699 0.044 6.515 0.044 7.355 0.045 C11.094 0.072 14.391 0.209 18.008 1.23 C17.678 2.22 17.348 3.21 17.008 4.23 C16.201 4.077 15.394 3.924 14.562 3.766 C10.417 3.142 6.316 2.884 2.133 2.668 C1.349 2.625 0.565 2.582 -0.242 2.537 C-2.159 2.432 -4.075 2.331 -5.992 2.23 C-3.992 0.23 -3.992 0.23 0 0 Z " fill="#F7D080" transform="translate(525.9921875,179.76953125)"/>
<path d="M0 0 C3 -0.027 6 -0.047 9 -0.062 C9.839 -0.071 10.678 -0.079 11.543 -0.088 C25.175 -0.141 25.175 -0.141 29 2.25 C30.334 4.585 30.214 6.358 30 9 C28.633 7.763 27.266 6.526 25.898 5.289 C20.615 1.701 14.785 1.611 8.625 1.375 C7.794 1.336 6.962 1.298 6.105 1.258 C4.071 1.164 2.035 1.081 0 1 C0 0.67 0 0.34 0 0 Z " fill="#F9DB9B" transform="translate(348,59)"/>
<path d="M0 0 C1.456 0.246 1.456 0.246 2.941 0.496 C7.283 1.116 11.56 1.111 15.938 1.062 C16.717 1.058 17.496 1.053 18.299 1.049 C20.199 1.037 22.1 1.019 24 1 C22.416 2.878 21.499 3.896 19.055 4.404 C16.702 4.436 14.353 4.458 12 4.438 C10.77 4.467 10.77 4.467 9.516 4.498 C3.502 4.493 3.502 4.493 0.938 1.973 C0.628 1.322 0.319 0.671 0 0 Z " fill="#F6D4CA" transform="translate(421,307)"/>
<path d="M0 0 C0 0.66 0 1.32 0 2 C-1.65 2 -3.3 2 -5 2 C-5.33 1.34 -5.66 0.68 -6 0 C-12.6 -0.33 -19.2 -0.66 -26 -1 C-26 -1.33 -26 -1.66 -26 -2 C-7.312 -4.875 -7.312 -4.875 0 0 Z " fill="#F3D181" transform="translate(607,34)"/>
<path d="M0 0 C0.33 0 0.66 0 1 0 C1.145 4.395 1.234 8.79 1.312 13.188 C1.375 15.056 1.375 15.056 1.439 16.963 C1.561 26.022 1.561 26.022 -0.135 28.979 C-1.52 30.363 -1.52 30.363 -4 32 C-4.99 31.67 -5.98 31.34 -7 31 C-6.34 31 -5.68 31 -5 31 C-5 30.34 -5 29.68 -5 29 C-4.34 29 -3.68 29 -3 29 C-2.67 28.01 -2.34 27.02 -2 26 C-1.34 26 -0.68 26 0 26 C0 17.42 0 8.84 0 0 Z " fill="#F9D0C5" transform="translate(450,278)"/>
<path d="M0 0 C0.33 0 0.66 0 1 0 C1 11.22 1 22.44 1 34 C-0.32 34 -1.64 34 -3 34 C-2.67 32.68 -2.34 31.36 -2 30 C-1.34 30 -0.68 30 0 30 C0 20.1 0 10.2 0 0 Z " fill="#FCCB54" transform="translate(344,122)"/>
<path d="M0 0 C-1.568 6.364 -3.143 12.714 -5 19 C-5.33 19 -5.66 19 -6 19 C-6.291 4.74 -6.291 4.74 -3.562 1.062 C-2 0 -2 0 0 0 Z " fill="#F6D178" transform="translate(583,80)"/>
<path d="M0 0 C0.33 0 0.66 0 1 0 C0.667 2.333 0.333 4.667 0 7 C-0.124 8.155 -0.247 9.31 -0.375 10.5 C-1.076 14.428 -2.311 17.401 -4 21 C-4.66 21 -5.32 21 -6 21 C-6.33 21.66 -6.66 22.32 -7 23 C-5.771 14.872 -3.115 7.585 0 0 Z " fill="#F4D383" transform="translate(542,104)"/>
<path d="M0 0 C4.289 2.859 4.252 5.942 5.371 10.801 C6.171 14.87 6.656 18.868 7 23 C4.84 20.84 4.5 19.844 3.711 16.973 C3.492 16.181 3.273 15.388 3.047 14.572 C2.714 13.33 2.714 13.33 2.375 12.062 C2.146 11.238 1.916 10.414 1.68 9.564 C0 3.411 0 3.411 0 0 Z " fill="#F4D58F" transform="translate(590,82)"/>
<path d="M0 0 C-0.33 0.99 -0.66 1.98 -1 3 C-3.764 4.051 -6.395 4.119 -9.328 4.098 C-10.127 4.094 -10.927 4.091 -11.75 4.088 C-12.575 4.08 -13.4 4.071 -14.25 4.062 C-15.09 4.058 -15.931 4.053 -16.797 4.049 C-18.865 4.037 -20.932 4.019 -23 4 C-23 3.34 -23 2.68 -23 2 C-22.322 2.023 -21.644 2.046 -20.945 2.07 C-15.062 2.184 -9.733 1.759 -3.996 0.438 C-2 0 -2 0 0 0 Z " fill="#EFD48B" transform="translate(549,278)"/>
<path d="M0 0 C1.784 3.417 3.256 6.922 4.688 10.5 C5.145 11.624 5.603 12.748 6.074 13.906 C6.976 16.92 7.155 18.143 6 21 C2.657 17.353 2.08 13.707 1 9 C0.67 8.67 0.34 8.34 0 8 C-0.141 5.329 -0.042 2.676 0 0 Z " fill="#F6DA93" transform="translate(630,105)"/>
<path d="M0 0 C2.375 3.062 2.375 3.062 4 6 C3.67 6.66 3.34 7.32 3 8 C2.319 7.381 1.639 6.763 0.938 6.125 C-2.459 3.668 -4.96 2.951 -9 2 C-9 1.34 -9 0.68 -9 0 C-5.368 -1.211 -3.654 -1.119 0 0 Z " fill="#E4C5DC" transform="translate(118,59)"/>
<path d="M0 0 C0.66 0 1.32 0 2 0 C3.252 2.505 3.114 4.209 3.098 7.008 C3.093 8.487 3.093 8.487 3.088 9.996 C3.08 11.029 3.071 12.061 3.062 13.125 C3.058 14.165 3.053 15.206 3.049 16.277 C3.037 18.852 3.021 21.426 3 24 C2.34 24 1.68 24 1 24 C1.012 22.938 1.023 21.876 1.035 20.781 C1.122 10.354 1.122 10.354 0 0 Z " fill="#FBDC98" transform="translate(564,232)"/>
<path d="M0 0 C0.99 0 1.98 0 3 0 C3.061 0.617 3.121 1.235 3.184 1.871 C3.749 7.586 4.356 13.294 5 19 C1.278 13.416 -0.53 6.716 0 0 Z " fill="#C5E0DC" transform="translate(170,103)"/>
<path d="M0 0 C3.813 1.498 5.725 3.626 8 7 C8.75 9.812 8.75 9.812 9 12 C8.01 11.67 7.02 11.34 6 11 C6 9.68 6 8.36 6 7 C4.68 6.67 3.36 6.34 2 6 C2 5.34 2 4.68 2 4 C1.34 4 0.68 4 0 4 C-0.33 3.01 -0.66 2.02 -1 1 C-0.67 0.67 -0.34 0.34 0 0 Z " fill="#EE9FBB" transform="translate(288,201)"/>
<path d="M0 0 C1.047 3.726 1.074 7.13 1 11 C0.01 11.495 0.01 11.495 -1 12 C-1.217 12.99 -1.217 12.99 -1.438 14 C-1.623 14.66 -1.809 15.32 -2 16 C-2.99 16.33 -3.98 16.66 -5 17 C-3.833 11.071 -2.245 5.612 0 0 Z " fill="#F7D587" transform="translate(533,130)"/>
<path d="M0 0 C0.66 0 1.32 0 2 0 C6.079 7.055 6.079 7.055 5.75 11 C5.502 11.66 5.255 12.32 5 13 C3.205 10.308 2.166 7.987 1 5 C0.348 3.659 -0.314 2.323 -1 1 C-0.67 0.67 -0.34 0.34 0 0 Z " fill="#EB8BAC" transform="translate(296,213)"/>
<path d="M0 0 C5.06 5.06 6.348 14.994 7 22 C5.179 19.268 4.104 16.917 2.938 13.875 C1.873 10.686 1.873 10.686 0 8 C-0.141 5.329 -0.042 2.676 0 0 Z " fill="#F7D98D" transform="translate(607,36)"/>
<path d="M0 0 C0.33 0 0.66 0 1 0 C1.027 2.938 1.047 5.875 1.062 8.812 C1.071 9.646 1.079 10.479 1.088 11.338 C1.091 12.14 1.094 12.943 1.098 13.77 C1.103 14.508 1.108 15.246 1.114 16.007 C1 18 1 18 0 21 C-0.66 21 -1.32 21 -2 21 C-1.01 10.605 -1.01 10.605 0 0 Z " fill="#D7B5CC" transform="translate(157,69)"/>
<path d="M0 0 C5.93 -0.379 10.472 0.894 16 3 C16 3.33 16 3.66 16 4 C14.742 4.041 13.484 4.082 12.188 4.125 C11.48 4.148 10.772 4.171 10.043 4.195 C8 4 8 4 5 2 C3.345 1.615 1.678 1.272 0 1 C0 0.67 0 0.34 0 0 Z " fill="#F4D281" transform="translate(374,32)"/>
<path d="M0 0 C0.99 0 1.98 0 3 0 C1.508 4.972 -0.605 9.418 -3 14 C-3.33 14 -3.66 14 -4 14 C-4 11.36 -4 8.72 -4 6 C-3.01 5.67 -2.02 5.34 -1 5 C-0.67 3.35 -0.34 1.7 0 0 Z " fill="#F6DB8D" transform="translate(508,220)"/>
<path d="M0 0 C4.62 0 9.24 0 14 0 C14.33 0.66 14.66 1.32 15 2 C12.546 3.227 10.8 3.202 8.062 3.25 C7.187 3.276 6.312 3.302 5.41 3.328 C3 3 3 3 0 0 Z " fill="#E6B9E1" transform="translate(98,118)"/>
<path d="M0 0 C1.32 0.33 2.64 0.66 4 1 C3.34 1.66 2.68 2.32 2 3 C1.814 4.237 1.814 4.237 1.625 5.5 C1 8 1 8 -1.062 9.312 C-1.702 9.539 -2.341 9.766 -3 10 C-3.33 9.01 -3.66 8.02 -4 7 C-3.34 7 -2.68 7 -2 7 C-2 5.68 -2 4.36 -2 3 C-1.34 3 -0.68 3 0 3 C0 2.01 0 1.02 0 0 Z " fill="#AAD8D4" transform="translate(183,53)"/>
<path d="M0 0 C3.63 0 7.26 0 11 0 C11 0.66 11 1.32 11 2 C6.947 2.982 3.161 3.082 -1 3 C-0.67 2.01 -0.34 1.02 0 0 Z " fill="#EAA6C4" transform="translate(247,309)"/>
<path d="M0 0 C0.33 0.66 0.66 1.32 1 2 C1.66 2.33 2.32 2.66 3 3 C0.902 4.033 -1.204 5.051 -3.312 6.062 C-4.484 6.631 -5.656 7.199 -6.863 7.785 C-10 9 -10 9 -13 8 C-12.67 7.34 -12.34 6.68 -12 6 C-9.327 5.255 -6.703 4.597 -4 4 C-2.666 3.67 -1.332 3.338 0 3 C0 2.01 0 1.02 0 0 Z " fill="#FADC9D" transform="translate(566,301)"/>
<path d="M0 0 C0.748 0.482 1.495 0.964 2.266 1.461 C3.25 2.093 4.235 2.724 5.25 3.375 C6.225 4.001 7.199 4.628 8.203 5.273 C10.435 6.651 12.631 7.883 15 9 C10.123 9.348 7.229 8.417 3 6 C3 5.34 3 4.68 3 4 C2.34 4 1.68 4 1 4 C0.67 2.68 0.34 1.36 0 0 Z " fill="#F9D593" transform="translate(510,271)"/>
<path d="M0 0 C-0.825 0.371 -1.65 0.743 -2.5 1.125 C-3.325 1.744 -4.15 2.362 -5 3 C-5.417 6.126 -5.417 6.126 -5 9 C-5.66 8.67 -6.32 8.34 -7 8 C-7 7.01 -7 6.02 -7 5 C-7.66 5 -8.32 5 -9 5 C-9 3.68 -9 2.36 -9 1 C-5.574 -0.618 -3.619 -1.341 0 0 Z " fill="#F8DA8B" transform="translate(398,107)"/>
<path d="M0 0 C1.457 1.02 1.457 1.02 3 3 C3.376 5.629 3.601 8.051 3.688 10.688 C3.722 11.389 3.756 12.091 3.791 12.814 C3.873 14.542 3.938 16.271 4 18 C3.34 18 2.68 18 2 18 C2 13.71 2 9.42 2 5 C1.34 5 0.68 5 0 5 C0 3.35 0 1.7 0 0 Z " fill="#F7D681" transform="translate(409,58)"/>
<path d="M0 0 C4.47 2.427 8.674 5.349 11 10 C10.01 10 9.02 10 8 10 C8 9.34 8 8.68 8 8 C6.35 7.67 4.7 7.34 3 7 C2.876 6.361 2.752 5.721 2.625 5.062 C2.316 4.042 2.316 4.042 2 3 C1.34 2.67 0.68 2.34 0 2 C0 1.34 0 0.68 0 0 Z " fill="#F9D488" transform="translate(394,38)"/>
<path d="M0 0 C0.99 0.33 1.98 0.66 3 1 C3 6.61 3 12.22 3 18 C2.67 18 2.34 18 2 18 C1.34 12.06 0.68 6.12 0 0 Z " fill="#BBD6D3" transform="translate(155,234)"/>
<path d="M0 0 C4.847 0.591 8.607 1.979 13 4 C13 4.33 13 4.66 13 5 C7.58 5.407 3.93 4.04 -1 2 C-0.67 1.34 -0.34 0.68 0 0 Z " fill="#F0A6C3" transform="translate(260,183)"/>
<path d="M0 0 C3.3 0 6.6 0 10 0 C9.67 1.65 9.34 3.3 9 5 C8.01 5 7.02 5 6 5 C6 4.01 6 3.02 6 2 C4.02 2 2.04 2 0 2 C0 1.34 0 0.68 0 0 Z " fill="#FCCC53" transform="translate(578,107)"/>
<path d="M0 0 C-0.33 0.66 -0.66 1.32 -1 2 C-6.886 3.156 -12.094 2.889 -18 2 C-18 1.67 -18 1.34 -18 1 C-16.125 0.83 -14.25 0.664 -12.375 0.5 C-11.331 0.407 -10.287 0.314 -9.211 0.219 C-6.129 0.009 -3.088 -0.037 0 0 Z " fill="#E6C5DB" transform="translate(115,90)"/>
<path d="M0 0 C-0.33 1.32 -0.66 2.64 -1 4 C-6.61 3.67 -12.22 3.34 -18 3 C-18 2.67 -18 2.34 -18 2 C-17.013 1.939 -16.025 1.879 -15.008 1.816 C-13.726 1.733 -12.445 1.649 -11.125 1.562 C-9.849 1.481 -8.573 1.4 -7.258 1.316 C-4.536 1.052 -2.625 0 0 0 Z " fill="#FAE3A3" transform="translate(373,85)"/>
<path d="M0 0 C1.32 0 2.64 0 4 0 C5.909 2.616 6.975 4.926 8 8 C6.25 7.938 6.25 7.938 4 7 C2.405 4.758 1.255 2.464 0 0 Z " fill="#EC9EB8" transform="translate(181,281)"/>
<path d="M0 0 C3.261 3.261 3.055 6.891 3.062 11.312 C3.042 12.529 3.021 13.746 3 15 C0.488 11.231 -0.127 8.738 -0.062 4.312 C-0.053 3.504 -0.044 2.696 -0.035 1.863 C-0.024 1.248 -0.012 0.634 0 0 Z " fill="#ED91B4" transform="translate(174,257)"/>
<path d="M0 0 C4.62 0 9.24 0 14 0 C14 0.66 14 1.32 14 2 C14.99 2.33 15.98 2.66 17 3 C13.816 4.592 10.719 3.287 7.375 2.562 C6.669 2.415 5.962 2.267 5.234 2.115 C3.488 1.75 1.744 1.376 0 1 C0 0.67 0 0.34 0 0 Z " fill="#F7E3A9" transform="translate(531,210)"/>
<path d="M0 0 C0 3.723 -1.375 4.801 -3.754 7.504 C-5.177 9.212 -6.135 10.955 -7 13 C-7.99 12.67 -8.98 12.34 -10 12 C-8.898 10.56 -7.794 9.123 -6.688 7.688 C-6.073 6.887 -5.458 6.086 -4.824 5.262 C-3.301 3.373 -1.756 1.669 0 0 Z " fill="#FCE4B0" transform="translate(487,197)"/>
<path d="M0 0 C0.33 0.66 0.66 1.32 1 2 C-8 5 -8 5 -10.188 4.062 C-10.786 3.712 -11.384 3.361 -12 3 C-9.505 0.505 -8.327 0.641 -4.875 0.375 C-3.965 0.3 -3.055 0.225 -2.117 0.148 C-1.069 0.075 -1.069 0.075 0 0 Z " fill="#C1D9D8" transform="translate(100,181)"/>
<path d="M0 0 C0.66 0.33 1.32 0.66 2 1 C1.824 3.379 1.303 4.702 -0.402 6.379 C-1.906 7.621 -3.451 8.814 -5 10 C-5 8.35 -5 6.7 -5 5 C-3.68 5 -2.36 5 -1 5 C-0.67 3.35 -0.34 1.7 0 0 Z " fill="#F8D78C" transform="translate(406,93)"/>
<path d="M0 0 C0.99 0.33 1.98 0.66 3 1 C3 1.99 3 2.98 3 4 C3.66 4.33 4.32 4.66 5 5 C4.01 5 3.02 5 2 5 C1.67 5.66 1.34 6.32 1 7 C-0.32 6.34 -1.64 5.68 -3 5 C-1.125 1.125 -1.125 1.125 0 0 Z " fill="#F8D471" transform="translate(376,81)"/>
<path d="M0 0 C0 0.99 0 1.98 0 3 C-5.28 2.67 -10.56 2.34 -16 2 C-16 1.67 -16 1.34 -16 1 C-14.084 0.831 -12.167 0.665 -10.25 0.5 C-9.183 0.407 -8.115 0.314 -7.016 0.219 C-4.682 0.049 -2.34 0 0 0 Z " fill="#C8E4DF" transform="translate(247,59)"/>
<path d="M0 0 C0.33 0 0.66 0 1 0 C1.338 1.749 1.67 3.499 2 5.25 C2.186 6.225 2.371 7.199 2.562 8.203 C3 11 3 11 3 15 C2.34 15 1.68 15 1 15 C-0.095 11.715 -0.1 9.263 -0.062 5.812 C-0.053 4.726 -0.044 3.639 -0.035 2.52 C-0.024 1.688 -0.012 0.857 0 0 Z " fill="#F8DA8E" transform="translate(501,245)"/>
<path d="M0 0 C1.32 0 2.64 0 4 0 C4.182 0.849 4.182 0.849 4.367 1.715 C4.535 2.448 4.702 3.182 4.875 3.938 C5.037 4.668 5.2 5.399 5.367 6.152 C5.83 8.207 5.83 8.207 8 9 C7.01 10.485 7.01 10.485 6 12 C4 8 2 4 0 0 Z " fill="#F7D797" transform="translate(557,220)"/>
<path d="M0 0 C1.562 1.75 1.562 1.75 3 4 C2.688 6.25 2.688 6.25 2 8 C2 7.34 2 6.68 2 6 C-0.31 6.33 -2.62 6.66 -5 7 C-5 6.34 -5 5.68 -5 5 C-3.35 4.67 -1.7 4.34 0 4 C0 2.68 0 1.36 0 0 Z " fill="#FAD27E" transform="translate(408,147)"/>
<path d="M0 0 C2 2 2 2 2.195 4.602 C2.172 5.599 2.149 6.597 2.125 7.625 C2.107 8.628 2.089 9.631 2.07 10.664 C2.036 11.82 2.036 11.82 2 13 C1.01 13 0.02 13 -1 13 C-0.67 8.71 -0.34 4.42 0 0 Z " fill="#E0BED4" transform="translate(124,68)"/>
<path d="M0 0 C0.99 0.33 1.98 0.66 3 1 C4.623 4.759 5.24 7.921 5 12 C1.662 8.359 1.021 4.714 0 0 Z " fill="#F6D184" transform="translate(471,267)"/>
<path d="M0 0 C1.958 1.958 2.894 3.489 4.125 5.938 C4.478 6.627 4.831 7.317 5.195 8.027 C6 10 6 10 6 13 C5.34 13 4.68 13 4 13 C0.754 8.845 0.432 5.094 0 0 Z " fill="#F7DA90" transform="translate(402,134)"/>
<path d="M0 0 C0.66 1.32 1.32 2.64 2 4 C0.35 5.98 -1.3 7.96 -3 10 C-3.66 9.01 -4.32 8.02 -5 7 C-4.01 6.67 -3.02 6.34 -2 6 C-2 5.01 -2 4.02 -2 3 C-1.34 3 -0.68 3 0 3 C0 2.01 0 1.02 0 0 Z " fill="#EFA4BE" transform="translate(293,281)"/>
<path d="M0 0 C0.99 0.33 1.98 0.66 3 1 C2.34 2.32 1.68 3.64 1 5 C0.01 5 -0.98 5 -2 5 C-2 7.64 -2 10.28 -2 13 C-2.33 13 -2.66 13 -3 13 C-3 9.7 -3 6.4 -3 3 C-2.01 2.67 -1.02 2.34 0 2 C0 1.34 0 0.68 0 0 Z " fill="#F8CB69" transform="translate(531,144)"/>
<path d="M0 0 C0.66 0 1.32 0 2 0 C2.566 4.814 0.826 7.203 -2 11 C-2.99 10.67 -3.98 10.34 -5 10 C-4.546 9.649 -4.092 9.299 -3.625 8.938 C-1.353 6.229 -0.832 3.392 0 0 Z " fill="#C6E0DC" transform="translate(264,108)"/>
<path d="M0 0 C1.292 4.218 0.462 6.833 -1 11 C-2.625 13.938 -2.625 13.938 -4 16 C-5 14 -5 14 -4.004 10.742 C-3.531 9.45 -3.05 8.161 -2.562 6.875 C-2.32 6.216 -2.077 5.558 -1.826 4.879 C-1.224 3.25 -0.613 1.625 0 0 Z " fill="#F4D391" transform="translate(557,58)"/>
<path d="M0 0 C0.99 0.99 1.98 1.98 3 3 C-1.29 2.67 -5.58 2.34 -10 2 C-10 1.67 -10 1.34 -10 1 C-6.606 0.224 -3.479 -0.366 0 0 Z " fill="#EEB6CF" transform="translate(229,309)"/>
<path d="M0 0 C5.414 0.467 9.205 1.243 14 4 C10.31 5.371 8.291 4.6 4.75 3.062 C3.858 2.682 2.966 2.302 2.047 1.91 C1.371 1.61 0.696 1.309 0 1 C0 0.67 0 0.34 0 0 Z " fill="#F9E0A5" transform="translate(504,306)"/>
<path d="M0 0 C0.99 0.66 1.98 1.32 3 2 C3 2.66 3 3.32 3 4 C1.68 4.33 0.36 4.66 -1 5 C-1.33 6.32 -1.66 7.64 -2 9 C-2.66 9 -3.32 9 -4 9 C-4 7.68 -4 6.36 -4 5 C-3.01 4.34 -2.02 3.68 -1 3 C-0.67 2.01 -0.34 1.02 0 0 Z " fill="#FDD17C" transform="translate(586,203)"/>
<path d="M0 0 C3.333 3.333 6.667 6.667 10 10 C7.188 9.875 7.188 9.875 4 9 C2.14 6.05 1.099 3.297 0 0 Z " fill="#CBE2DF" transform="translate(209,116)"/>
<path d="M0 0 C0 2.953 -0.439 4.491 -1.5 7.188 C-1.778 7.903 -2.057 8.618 -2.344 9.355 C-2.56 9.898 -2.777 10.441 -3 11 C-3.66 11 -4.32 11 -5 11 C-4.744 9.539 -4.47 8.081 -4.188 6.625 C-4.037 5.813 -3.886 5.001 -3.73 4.164 C-3 2 -3 2 0 0 Z " fill="#F4D289" transform="translate(566,36)"/>
<path d="M0 0 C-0.75 6.625 -0.75 6.625 -3 10 C-3.33 7.36 -3.66 4.72 -4 2 C-1 0 -1 0 0 0 Z " fill="#F093B0" transform="translate(304,260)"/>
<path d="M0 0 C0 0.99 0 1.98 0 3 C-4.057 4.708 -5.746 5.418 -10 4 C-8.711 3.328 -7.419 2.663 -6.125 2 C-5.406 1.629 -4.686 1.257 -3.945 0.875 C-2 0 -2 0 0 0 Z " fill="#F3A2C5" transform="translate(212,185)"/>
<path d="M0 0 C0.33 0 0.66 0 1 0 C4.26 9.41 4.26 9.41 5 14 C4.34 13.67 3.68 13.34 3 13 C2.67 12.01 2.34 11.02 2 10 C1.34 9.67 0.68 9.34 0 9 C0 6.03 0 3.06 0 0 Z " fill="#F4D488" transform="translate(625,91)"/>
<path d="M0 0 C2 2 2 2 2 5 C1.01 5.495 1.01 5.495 0 6 C-0.33 6.99 -0.66 7.98 -1 9 C-1.66 9 -2.32 9 -3 9 C-2.443 5.656 -1.648 2.967 0 0 Z " fill="#FBCD66" transform="translate(403,53)"/>
<path d="M0 0 C0.66 1.32 1.32 2.64 2 4 C-1.375 4.188 -1.375 4.188 -5 4 C-5.66 3.01 -6.32 2.02 -7 1 C-4.69 1.33 -2.38 1.66 0 2 C0 1.34 0 0.68 0 0 Z " fill="#F27BA7" transform="translate(219,304)"/>
<path d="M0 0 C3.701 0.905 5.565 1.439 7.938 4.5 C8.288 5.325 8.639 6.15 9 7 C8.67 7.66 8.34 8.32 8 9 C4.369 6.35 2.101 3.982 0 0 Z " fill="#F9D996" transform="translate(481,288)"/>
<path d="M0 0 C0.99 0 1.98 0 3 0 C3 0.66 3 1.32 3 2 C3.66 2 4.32 2 5 2 C5 2.66 5 3.32 5 4 C3.02 4.99 3.02 4.99 1 6 C0.34 5.34 -0.32 4.68 -1 4 C-0.625 1.875 -0.625 1.875 0 0 Z " fill="#F189B0" transform="translate(250,279)"/>
<path d="M0 0 C0.66 0.33 1.32 0.66 2 1 C0.839 5.355 -0.077 7.646 -4 10 C-4.33 8.68 -4.66 7.36 -5 6 C-3.68 5.67 -2.36 5.34 -1 5 C-0.67 3.35 -0.34 1.7 0 0 Z " fill="#F6D27C" transform="translate(593,273)"/>
<path d="M0 0 C2.31 0 4.62 0 7 0 C6 2 6 2 3.625 3.125 C1 4 1 4 -2 4 C-1.34 2.68 -0.68 1.36 0 0 Z " fill="#FBCF55" transform="translate(545,186)"/>
<path d="M0 0 C4.62 0 9.24 0 14 0 C14 0.33 14 0.66 14 1 C12.855 1.217 12.855 1.217 11.688 1.438 C8.918 1.963 8.918 1.963 6 3 C2.812 2.062 2.812 2.062 0 1 C0 0.67 0 0.34 0 0 Z " fill="#EFAFC3" transform="translate(237,180)"/>
<path d="M0 0 C1.124 3.304 0.896 5.051 -0.438 8.25 C-0.725 8.956 -1.012 9.663 -1.309 10.391 C-1.537 10.922 -1.765 11.453 -2 12 C-2.33 12 -2.66 12 -3 12 C-3 10.02 -3 8.04 -3 6 C-2.34 6 -1.68 6 -1 6 C-1.031 4.793 -1.031 4.793 -1.062 3.562 C-1 1 -1 1 0 0 Z " fill="#C7E2DE" transform="translate(296,116)"/>
<path d="M0 0 C0.66 0 1.32 0 2 0 C2 2.31 2 4.62 2 7 C0.68 7 -0.64 7 -2 7 C-1.125 2.25 -1.125 2.25 0 0 Z " fill="#FDCC56" transform="translate(388,112)"/>
<path d="M0 0 C1.207 0.031 1.207 0.031 2.438 0.062 C1.778 1.713 1.117 3.362 0.438 5.062 C-0.553 5.062 -1.543 5.062 -2.562 5.062 C-3.125 3.125 -3.125 3.125 -3.562 1.062 C-2.562 0.062 -2.562 0.062 0 0 Z " fill="#FDCD56" transform="translate(586.5625,63.9375)"/>
<path d="M0 0 C4.575 2.021 7.618 4.32 11 8 C6.644 7.516 4.909 6.21 2 3 C1.34 2.67 0.68 2.34 0 2 C0 1.34 0 0.68 0 0 Z " fill="#F1A7C6" transform="translate(273,188)"/>
<path d="M0 0 C0 0.66 0 1.32 0 2 C-2.751 2.917 -4.359 3.109 -7.188 3.062 C-9.075 3.032 -9.075 3.032 -11 3 C-6.99 0.327 -4.828 0 0 0 Z " fill="#F0B0C7" transform="translate(226,181)"/>
<path d="M0 0 C0.66 0 1.32 0 2 0 C2 1.32 2 2.64 2 4 C-2.29 4 -6.58 4 -11 4 C-11 3.67 -11 3.34 -11 3 C-10.29 2.951 -9.579 2.902 -8.848 2.852 C-7.469 2.739 -7.469 2.739 -6.062 2.625 C-5.146 2.555 -4.229 2.486 -3.285 2.414 C-2.154 2.209 -2.154 2.209 -1 2 C-0.67 1.34 -0.34 0.68 0 0 Z " fill="#FBCE57" transform="translate(336,153)"/>
<path d="M0 0 C-0.33 0.99 -0.66 1.98 -1 3 C-4.63 3 -8.26 3 -12 3 C-12 2.67 -12 2.34 -12 2 C-10.375 1.664 -8.75 1.332 -7.125 1 C-6.22 0.814 -5.315 0.629 -4.383 0.438 C-2 0 -2 0 0 0 Z " fill="#F6E09D" transform="translate(549,278)"/>
<path d="M0 0 C1.208 3.623 0.543 4.641 -1 8 C-1.99 8 -2.98 8 -4 8 C-3.34 6.02 -2.68 4.04 -2 2 C-1.34 2 -0.68 2 0 2 C0 1.34 0 0.68 0 0 Z " fill="#F3D88E" transform="translate(564,260)"/>
<path d="M0 0 C0.99 0 1.98 0 3 0 C1.875 2.972 0.777 5.334 -1 8 C-1.625 5.688 -1.625 5.688 -2 3 C-1.34 2.01 -0.68 1.02 0 0 Z " fill="#EEA0BD" transform="translate(209,226)"/>
<path d="M0 0 C2.97 0 5.94 0 9 0 C5.323 1.838 1.95 2.937 -2 4 C-2 3.34 -2 2.68 -2 2 C-1.34 2 -0.68 2 0 2 C0 1.34 0 0.68 0 0 Z " fill="#F9DFA9" transform="translate(521,211)"/>
<path d="M0 0 C1.32 0 2.64 0 4 0 C3.01 2.97 2.02 5.94 1 9 C0.67 9 0.34 9 0 9 C0 6.03 0 3.06 0 0 Z " fill="#A6CECA" transform="translate(88,185)"/>
<path d="M0 0 C0.66 0 1.32 0 2 0 C1.67 0.99 1.34 1.98 1 3 C-2.562 4.688 -2.562 4.688 -6 6 C-5.67 4.68 -5.34 3.36 -5 2 C-3.35 2 -1.7 2 0 2 C0 1.34 0 0.68 0 0 Z " fill="#C2DEDC" transform="translate(272,148)"/>
<path d="M0 0 C0.33 0 0.66 0 1 0 C1.25 7.625 1.25 7.625 -1 11 C-2.601 6.998 -1.293 3.954 0 0 Z " fill="#FCCC54" transform="translate(581,72)"/>
<path d="M0 0 C1.65 0 3.3 0 5 0 C2.03 3.96 2.03 3.96 -1 8 C-1 5.16 -0.597 2.763 0 0 Z " fill="#C7E1DF" transform="translate(210,67)"/>
<path d="M0 0 C4.875 3.625 4.875 3.625 6 7 C4.35 6.67 2.7 6.34 1 6 C0.67 4.02 0.34 2.04 0 0 Z " fill="#C5DDDA" transform="translate(283,49)"/>
<path d="M0 0 C3.912 1.156 6.875 2.355 10 5 C8.518 4.746 7.039 4.471 5.562 4.188 C4.739 4.037 3.915 3.886 3.066 3.73 C2.384 3.489 1.703 3.248 1 3 C0.67 2.01 0.34 1.02 0 0 Z " fill="#EBCEE2" transform="translate(131,34)"/>
<path d="M0 0 C0.66 0 1.32 0 2 0 C1.125 5.75 1.125 5.75 0 8 C-0.66 8 -1.32 8 -2 8 C-1.477 5.237 -0.891 2.674 0 0 Z " fill="#EF7BA4" transform="translate(299,266)"/>
<path d="M0 0 C0.99 0 1.98 0 3 0 C5.29 3.435 5.178 4.985 5 9 C2.353 6.353 1.401 3.438 0 0 Z " fill="#FCE7C0" transform="translate(363,121)"/>
<path d="M0 0 C1.32 0 2.64 0 4 0 C4 2.31 4 4.62 4 7 C3.01 7 2.02 7 1 7 C1.33 5.02 1.66 3.04 2 1 C1.34 0.67 0.68 0.34 0 0 Z " fill="#F9CD56" transform="translate(617,80)"/>
<path d="M0 0 C4.455 0.99 4.455 0.99 9 2 C8.01 2.495 8.01 2.495 7 3 C6.67 3.66 6.34 4.32 6 5 C5.01 4.67 4.02 4.34 3 4 C3 3.34 3 2.68 3 2 C2.01 2 1.02 2 0 2 C0 1.34 0 0.68 0 0 Z " fill="#CAE3E0" transform="translate(254,32)"/>
<path d="M0 0 C3.3 0 6.6 0 10 0 C10 0.33 10 0.66 10 1 C4.25 2.125 4.25 2.125 2 1 C1.67 1.99 1.34 2.98 1 4 C0.34 4 -0.32 4 -1 4 C-0.67 2.68 -0.34 1.36 0 0 Z " fill="#F59E6E" transform="translate(426,33)"/>
<path d="M0 0 C2.667 1.333 5.333 2.667 8 4 C7.67 4.99 7.34 5.98 7 7 C5.83 6.024 4.664 5.044 3.5 4.062 C2.85 3.517 2.201 2.972 1.531 2.41 C1.026 1.945 0.521 1.479 0 1 C0 0.67 0 0.34 0 0 Z " fill="#F0B5C7" transform="translate(188,291)"/>
<path d="M0 0 C0.66 0 1.32 0 2 0 C1.34 2.97 0.68 5.94 0 9 C-0.33 9 -0.66 9 -1 9 C-1.098 2.848 -1.098 2.848 -1 1 C-0.67 0.67 -0.34 0.34 0 0 Z " fill="#F6D385" transform="translate(596,264)"/>
<path d="M0 0 C4 4.75 4 4.75 4 7 C1.525 6.01 1.525 6.01 -1 5 C-0.67 3.35 -0.34 1.7 0 0 Z " fill="#F7DA96" transform="translate(506,264)"/>
<path d="M0 0 C1.208 3.623 0.543 4.641 -1 8 C-1.66 8 -2.32 8 -3 8 C-2.25 2.25 -2.25 2.25 0 0 Z " fill="#FBD054" transform="translate(501,261)"/>
<path d="M0 0 C0.66 0 1.32 0 2 0 C3.354 2.709 3.065 5.009 3 8 C2.34 8 1.68 8 1 8 C0.67 5.36 0.34 2.72 0 0 Z " fill="#F5D78F" transform="translate(564,232)"/>
<path d="M0 0 C1.312 3.937 0.243 6.125 -1 10 C-1.33 10 -1.66 10 -2 10 C-2.195 3.945 -2.195 3.945 -2 2 C-1.34 1.34 -0.68 0.68 0 0 Z " fill="#E47EA5" transform="translate(207,231)"/>
<path d="M0 0 C2.475 0.495 2.475 0.495 5 1 C4.67 2.32 4.34 3.64 4 5 C3.01 4.67 2.02 4.34 1 4 C0.312 1.938 0.312 1.938 0 0 Z " fill="#FBCC58" transform="translate(562,224)"/>
<path d="M0 0 C0.99 0.33 1.98 0.66 3 1 C2.67 2.32 2.34 3.64 2 5 C1.34 5 0.68 5 0 5 C-0.33 5.66 -0.66 6.32 -1 7 C-1.043 5 -1.041 3 -1 1 C-0.67 0.67 -0.34 0.34 0 0 Z " fill="#FECB5F" transform="translate(316,149)"/>
<path d="M0 0 C1.485 0.99 1.485 0.99 3 2 C3.188 5.125 3.188 5.125 3 8 C2.01 8.495 2.01 8.495 1 9 C0.67 6.03 0.34 3.06 0 0 Z " fill="#DEB9D3" transform="translate(155,61)"/>
<path d="M0 0 C2.31 0.33 4.62 0.66 7 1 C7 1.99 7 2.98 7 4 C4.625 3.688 4.625 3.688 2 3 C1.34 2.01 0.68 1.02 0 0 Z " fill="#F1B18E" transform="translate(424,58)"/>
<path d="M0 0 C0.33 0 0.66 0 1 0 C1 2.97 1 5.94 1 9 C0.01 9.33 -0.98 9.66 -2 10 C-1.34 6.7 -0.68 3.4 0 0 Z " fill="#F4D68D" transform="translate(560,47)"/>
</svg>